<?xml version="1.0" encoding="UTF-8"?>
<svg xmlns="http://www.w3.org/2000/svg" xmlns:xlink="http://www.w3.org/1999/xlink" width="192pt" height="192pt" viewBox="0 0 192 192" version="1.1">
<g id="surface88254">
<path style=" stroke:none;fill-rule:nonzero;fill:rgb(59.607843%,80%,99.215686%);fill-opacity:1;" d="M 61.085938 40.003906 L 74.859375 36.558594 L 78.941406 61.046875 L 73.074219 63.980469 Z M 61.085938 40.003906 "/>
<path style=" stroke:none;fill-rule:nonzero;fill:rgb(27.843137%,53.333333%,78.039216%);fill-opacity:1;" d="M 72.921875 39.519531 L 76.285156 59.691406 L 74.152344 60.757812 L 64.574219 41.601562 L 72.921875 39.519531 M 76.800781 33.601562 L 57.601562 38.398438 L 72 67.199219 L 81.601562 62.398438 Z M 76.800781 33.601562 "/>
<path style=" stroke:none;fill-rule:nonzero;fill:rgb(59.607843%,80%,99.215686%);fill-opacity:1;" d="M 36.558594 74.859375 L 40.003906 61.085938 L 63.980469 73.074219 L 61.046875 78.941406 Z M 36.558594 74.859375 "/>
<path style=" stroke:none;fill-rule:nonzero;fill:rgb(27.843137%,53.333333%,78.039216%);fill-opacity:1;" d="M 41.605469 64.570312 L 60.761719 74.144531 L 59.699219 76.28125 L 39.523438 72.917969 L 41.605469 64.570312 M 38.398438 57.601562 L 33.601562 76.800781 L 62.398438 81.601562 L 67.199219 72 Z M 38.398438 57.601562 "/>
<path style=" stroke:none;fill-rule:nonzero;fill:rgb(87.45098%,94.117647%,99.607843%);fill-opacity:1;" d="M 41.0625 184.800781 C 31.976562 184.800781 23.46875 181.292969 17.089844 174.910156 C 3.867188 161.691406 3.867188 140.179688 17.089844 126.960938 L 40.566406 103.488281 C 46.9375 97.109375 55.453125 93.601562 64.539062 93.601562 C 69.441406 93.601562 74.300781 94.679688 78.769531 96.742188 L 67.324219 108.183594 C 66.4375 108.0625 65.558594 108 64.679688 108 C 59.4375 108 54.539062 110.011719 50.886719 113.667969 L 27.414062 137.140625 C 23.753906 140.796875 21.738281 145.695312 21.738281 150.9375 C 21.738281 156.171875 23.753906 161.070312 27.414062 164.730469 C 31.070312 168.390625 35.964844 170.398438 41.207031 170.398438 C 46.445312 170.398438 51.339844 168.390625 55 164.730469 L 78.476562 141.257812 C 82.132812 137.605469 84.144531 132.707031 84.144531 127.464844 C 84.144531 126.464844 84.054688 125.4375 83.867188 124.347656 L 95.164062 113.042969 C 101.210938 125.898438 98.664062 141.292969 88.511719 151.445312 L 65.035156 174.917969 C 58.664062 181.292969 50.152344 184.800781 41.0625 184.800781 Z M 41.0625 184.800781 "/>
<path style=" stroke:none;fill-rule:nonzero;fill:rgb(27.843137%,53.333333%,78.039216%);fill-opacity:1;" d="M 64.535156 96 C 67.921875 96 71.28125 96.550781 74.488281 97.621094 L 66.4375 105.671875 C 65.851562 105.625 65.261719 105.601562 64.679688 105.601562 C 58.800781 105.601562 53.300781 107.859375 49.191406 111.972656 L 25.71875 135.445312 C 21.605469 139.554688 19.34375 145.054688 19.34375 150.9375 C 19.34375 156.816406 21.605469 162.316406 25.71875 166.425781 C 29.824219 170.535156 35.328125 172.800781 41.207031 172.800781 C 47.089844 172.800781 52.589844 170.539062 56.699219 166.425781 L 80.167969 142.953125 C 84.277344 138.84375 86.542969 133.34375 86.542969 127.464844 C 86.542969 126.71875 86.5 125.972656 86.410156 125.195312 L 94.304688 117.296875 C 98.136719 128.511719 95.410156 141.148438 86.816406 149.742188 L 63.34375 173.210938 C 57.421875 179.136719 49.507812 182.398438 41.0625 182.398438 C 32.621094 182.398438 24.707031 179.136719 18.78125 173.21875 C 12.863281 167.292969 9.601562 159.378906 9.601562 150.9375 C 9.601562 142.492188 12.863281 134.578125 18.789062 128.65625 L 42.257812 105.183594 C 48.175781 99.265625 56.09375 96 64.535156 96 M 64.535156 91.199219 C 55.230469 91.199219 45.921875 94.726562 38.859375 101.789062 L 15.390625 125.261719 C 1.265625 139.382812 1.265625 162.488281 15.390625 176.605469 C 22.449219 183.671875 31.757812 187.199219 41.0625 187.199219 C 50.371094 187.199219 59.679688 183.671875 66.738281 176.609375 L 90.210938 153.140625 C 102.113281 141.234375 103.945312 122.957031 95.769531 109.046875 L 81.257812 123.558594 C 81.550781 124.824219 81.742188 126.125 81.742188 127.464844 C 81.742188 132.0625 79.980469 136.359375 76.777344 139.558594 L 53.304688 163.03125 C 50.101562 166.238281 45.800781 168 41.207031 168 C 36.609375 168 32.3125 166.238281 29.113281 163.03125 C 25.910156 159.832031 24.144531 155.535156 24.144531 150.9375 C 24.144531 146.335938 25.90625 142.042969 29.113281 138.839844 L 52.585938 115.367188 C 55.785156 112.160156 60.082031 110.398438 64.679688 110.398438 C 65.859375 110.398438 67.023438 110.523438 68.152344 110.75 L 82.777344 96.125 C 77.160156 92.871094 70.859375 91.199219 64.535156 91.199219 Z M 64.535156 91.199219 "/>
<path style=" stroke:none;fill-rule:nonzero;fill:rgb(87.45098%,94.117647%,99.607843%);fill-opacity:1;" d="M 127.464844 97.9375 C 122.605469 97.9375 117.789062 96.878906 113.363281 94.851562 L 124.871094 83.34375 C 125.796875 83.476562 126.707031 83.542969 127.609375 83.542969 C 132.84375 83.542969 137.742188 81.53125 141.398438 77.875 L 164.71875 54.875 C 168.382812 51.207031 170.398438 46.304688 170.398438 41.0625 C 170.398438 35.824219 168.382812 30.921875 164.726562 27.269531 C 161.078125 23.609375 156.175781 21.601562 150.9375 21.601562 C 145.695312 21.601562 140.792969 23.609375 137.140625 27.269531 L 113.824219 50.269531 C 110.15625 53.9375 108.140625 58.839844 108.140625 64.074219 C 108.140625 65.042969 108.226562 66.046875 108.402344 67.105469 L 96.894531 78.613281 C 90.773438 65.734375 93.292969 50.289062 103.488281 40.09375 L 126.804688 17.097656 C 133.191406 10.707031 141.707031 7.195312 150.792969 7.195312 C 159.878906 7.195312 168.394531 10.703125 174.769531 17.082031 C 181.148438 23.457031 184.660156 31.972656 184.660156 41.058594 C 184.660156 50.144531 181.148438 58.660156 174.769531 65.035156 L 151.449219 88.03125 C 145.066406 94.425781 136.546875 97.9375 127.464844 97.9375 Z M 127.464844 97.9375 "/>
<path style=" stroke:none;fill-rule:nonzero;fill:rgb(27.843137%,53.333333%,78.039216%);fill-opacity:1;" d="M 150.792969 9.601562 C 159.234375 9.601562 167.152344 12.863281 173.074219 18.78125 C 178.996094 24.707031 182.257812 32.617188 182.257812 41.058594 C 182.257812 49.503906 178.992188 57.417969 173.09375 63.316406 L 149.742188 86.351562 C 143.816406 92.273438 135.90625 95.535156 127.460938 95.535156 C 124.125 95.535156 120.804688 94.996094 117.644531 93.957031 L 125.746094 85.851562 C 126.371094 85.90625 126.988281 85.933594 127.601562 85.933594 C 133.484375 85.933594 138.984375 83.671875 143.074219 79.585938 L 166.425781 56.546875 C 170.535156 52.445312 172.800781 46.945312 172.800781 41.0625 C 172.800781 35.183594 170.539062 29.683594 166.425781 25.574219 C 162.316406 21.464844 156.816406 19.199219 150.9375 19.199219 C 145.054688 19.199219 139.554688 21.460938 135.46875 25.550781 L 112.117188 48.585938 C 108.007812 52.695312 105.742188 58.195312 105.742188 64.074219 C 105.742188 64.789062 105.78125 65.511719 105.863281 66.25 L 97.742188 74.371094 C 93.839844 63.125 96.546875 50.433594 105.164062 41.816406 L 128.515625 18.78125 C 134.4375 12.863281 142.347656 9.601562 150.792969 9.601562 M 150.792969 4.800781 C 141.484375 4.800781 132.175781 8.328125 125.117188 15.390625 L 101.789062 38.398438 C 89.851562 50.335938 88.046875 68.679688 96.292969 82.601562 L 111 67.894531 C 110.722656 66.652344 110.539062 65.378906 110.539062 64.070312 C 110.539062 59.472656 112.300781 55.175781 115.507812 51.972656 L 138.835938 28.964844 C 142.042969 25.761719 146.335938 24 150.9375 24 C 155.535156 24 159.832031 25.761719 163.03125 28.96875 C 166.238281 32.167969 168 36.464844 168 41.0625 C 168 45.664062 166.238281 49.957031 163.03125 53.160156 L 139.703125 76.171875 C 136.503906 79.371094 132.207031 81.140625 127.609375 81.140625 C 126.398438 81.140625 125.210938 81 124.054688 80.761719 L 109.339844 95.476562 C 114.925781 98.6875 121.191406 100.335938 127.464844 100.335938 C 136.769531 100.335938 146.078125 96.804688 153.140625 89.746094 L 176.46875 66.734375 C 190.589844 52.613281 190.589844 29.503906 176.46875 15.390625 C 169.40625 8.328125 160.097656 4.800781 150.792969 4.800781 Z M 150.792969 4.800781 "/>
<path style=" stroke:none;fill-rule:nonzero;fill:rgb(59.607843%,80%,99.215686%);fill-opacity:1;" d="M 127.949219 118.859375 L 130.886719 112.988281 L 155.371094 117.070312 L 151.925781 130.84375 Z M 127.949219 118.859375 "/>
<path style=" stroke:none;fill-rule:nonzero;fill:rgb(27.843137%,53.333333%,78.039216%);fill-opacity:1;" d="M 132.234375 115.644531 L 152.410156 119.011719 L 150.320312 127.363281 L 131.164062 117.789062 L 132.234375 115.644531 M 129.527344 110.328125 L 124.726562 119.929688 L 153.527344 134.328125 L 158.328125 115.128906 Z M 129.527344 110.328125 "/>
<path style=" stroke:none;fill-rule:nonzero;fill:rgb(59.607843%,80%,99.215686%);fill-opacity:1;" d="M 112.988281 130.886719 L 118.859375 127.949219 L 130.847656 151.925781 L 117.070312 155.371094 Z M 112.988281 130.886719 "/>
<path style=" stroke:none;fill-rule:nonzero;fill:rgb(27.843137%,53.333333%,78.039216%);fill-opacity:1;" d="M 117.78125 131.167969 L 127.359375 150.328125 L 119.007812 152.414062 L 115.640625 132.238281 L 117.78125 131.167969 M 119.929688 124.726562 L 110.328125 129.527344 L 115.128906 158.328125 L 134.328125 153.527344 Z M 119.929688 124.726562 "/>
</g>
</svg>
