<svg xmlns="http://www.w3.org/2000/svg" width="36.521" height="49" viewBox="0 0 36.521 49"><g transform="translate(-17.08 0)"><path d="M30.971,18.066C33.94,25.83,36.91,33.6,39.923,41.477c-.631.049-1.169.136-1.714.136a25.734,25.734,0,0,1-7.7-1.46,20.178,20.178,0,0,1-5.574-2.778,14.38,14.38,0,0,1-2.165-1.794,22.58,22.58,0,0,1-3.978-5.76,17.706,17.706,0,0,1-1.479-4.615,17.276,17.276,0,0,1-.2-2.332c-.037-.755-.043-1.51-.012-2.264a14.481,14.481,0,0,1,.192-2.134c.291-1.584.606-3.161.984-4.721A34.866,34.866,0,0,1,20.181,8.42c.285-.674.532-1.361.823-2.035.433-1,.891-1.986,1.336-2.982.359-.8.718-1.6,1.083-2.394.148-.328.322-.656.495-1.008,1.1.452,2.159.885,3.223,1.324,1.881.773,3.793,1.479,5.63,2.332,1.7.792,3.341,1.726,4.987,2.636.965.538,1.893,1.132,2.815,1.739a20.54,20.54,0,0,1,7.078,7.486,17.761,17.761,0,0,1,1.609,4.455,17.967,17.967,0,0,1,.538,5.036,15.442,15.442,0,0,1-.916,4.4c-.415,1.163-.841,2.32-1.343,3.446a28.912,28.912,0,0,1-3.966,6.682c-.173.21-.062.322.019.47q2.19,4.065,4.393,8.13c.025.043.043.087.08.167-.674.229-1.336.458-2.029.7Q38.546,33.483,31.094,18.016C31.057,18.035,31.014,18.047,30.971,18.066Z" transform="translate(0)" fill="#0091f2"/><path d="M429.358,117.99c.532-1.1,1.058-2.085,1.5-3.106.427-.99.8-2.011,1.132-3.038a22.033,22.033,0,0,0,.73-2.79,9.662,9.662,0,0,0,.1-3.452c-.068-.39-.043-.792-.105-1.182-.142-.959-.26-1.924-.489-2.865a18.445,18.445,0,0,0-3.452-6.768,19.666,19.666,0,0,0-4.288-3.972,3.323,3.323,0,0,1-.359-.3.982.982,0,0,1-.124-.173c.742-.3,1.46-.594,2.184-.872,1.12-.427,2.246-.835,3.359-1.268.452-.173.5-.186.705.254.322.681.606,1.373.916,2.06.427.953.866,1.893,1.275,2.852.2.47.346.965.507,1.454.433,1.349.879,2.7,1.293,4.059a23.285,23.285,0,0,1,.674,2.5,18.479,18.479,0,0,1,.328,5.8,16.509,16.509,0,0,1-1.782,5.6,24.135,24.135,0,0,1-2.419,3.706,12.731,12.731,0,0,1-1.312,1.336C429.661,117.9,429.531,117.916,429.358,117.99Z" transform="translate(-381.745 -82.639)" fill="#3a27ff"/></g></svg>