<?xml version="1.0" encoding="UTF-8"?>
<svg xmlns="http://www.w3.org/2000/svg" xmlns:xlink="http://www.w3.org/1999/xlink" viewBox="0 0 40 40" version="1.1" width="480px" height="480px">
<g id="surface1">
<path style="fill:none;stroke-width:1;stroke-linecap:butt;stroke-linejoin:miter;stroke:#4788C7;stroke-opacity:1;stroke-miterlimit:10;" d="M 35 16 L 20 20 "/>
<path style="fill:none;stroke-width:1;stroke-linecap:butt;stroke-linejoin:miter;stroke:#4788C7;stroke-opacity:1;stroke-miterlimit:10;" d="M 30 35 L 20 20 L 23 5 "/>
<path style="fill:none;stroke-width:1;stroke-linecap:butt;stroke-linejoin:miter;stroke:#4788C7;stroke-opacity:1;stroke-miterlimit:10;" d="M 5 16 L 20 20 L 12 35 "/>
<path style=" fill:#98CCFD;" d="M 24.5 20 C 24.5 22.484375 22.484375 24.5 20 24.5 C 17.515625 24.5 15.5 22.484375 15.5 20 C 15.5 17.515625 17.515625 15.5 20 15.5 C 22.484375 15.5 24.5 17.515625 24.5 20 Z "/>
<path style=" fill:#0091f2;" d="M 20 16 C 22.207031 16 24 17.792969 24 20 C 24 22.207031 22.207031 24 20 24 C 17.792969 24 16 22.207031 16 20 C 16 17.792969 17.792969 16 20 16 M 20 15 C 17.238281 15 15 17.238281 15 20 C 15 22.761719 17.238281 25 20 25 C 22.761719 25 25 22.761719 25 20 C 25 17.238281 22.761719 15 20 15 Z "/>
<path style=" fill:#DFF0FE;" d="M 26.5 5 C 26.5 6.933594 24.933594 8.5 23 8.5 C 21.066406 8.5 19.5 6.933594 19.5 5 C 19.5 3.066406 21.066406 1.5 23 1.5 C 24.933594 1.5 26.5 3.066406 26.5 5 Z "/>
<path style=" fill:#0091f2;" d="M 23 2 C 24.652344 2 26 3.347656 26 5 C 26 6.652344 24.652344 8 23 8 C 21.347656 8 20 6.652344 20 5 C 20 3.347656 21.347656 2 23 2 M 23 1 C 20.789063 1 19 2.789063 19 5 C 19 7.210938 20.789063 9 23 9 C 25.210938 9 27 7.210938 27 5 C 27 2.789063 25.210938 1 23 1 Z "/>
<path style=" fill:#DFF0FE;" d="M 38.5 16 C 38.5 17.933594 36.933594 19.5 35 19.5 C 33.066406 19.5 31.5 17.933594 31.5 16 C 31.5 14.066406 33.066406 12.5 35 12.5 C 36.933594 12.5 38.5 14.066406 38.5 16 Z "/>
<path style=" fill:#0091f2;" d="M 35 13 C 36.652344 13 38 14.347656 38 16 C 38 17.652344 36.652344 19 35 19 C 33.347656 19 32 17.652344 32 16 C 32 14.347656 33.347656 13 35 13 M 35 12 C 32.789063 12 31 13.789063 31 16 C 31 18.210938 32.789063 20 35 20 C 37.210938 20 39 18.210938 39 16 C 39 13.789063 37.210938 12 35 12 Z "/>
<path style=" fill:#DFF0FE;" d="M 33.5 35 C 33.5 36.933594 31.933594 38.5 30 38.5 C 28.066406 38.5 26.5 36.933594 26.5 35 C 26.5 33.066406 28.066406 31.5 30 31.5 C 31.933594 31.5 33.5 33.066406 33.5 35 Z "/>
<path style=" fill:#0091f2;" d="M 30 32 C 31.652344 32 33 33.347656 33 35 C 33 36.652344 31.652344 38 30 38 C 28.347656 38 27 36.652344 27 35 C 27 33.347656 28.347656 32 30 32 M 30 31 C 27.789063 31 26 32.789063 26 35 C 26 37.210938 27.789063 39 30 39 C 32.210938 39 34 37.210938 34 35 C 34 32.789063 32.210938 31 30 31 Z "/>
<path style=" fill:#DFF0FE;" d="M 15.5 35 C 15.5 36.933594 13.933594 38.5 12 38.5 C 10.066406 38.5 8.5 36.933594 8.5 35 C 8.5 33.066406 10.066406 31.5 12 31.5 C 13.933594 31.5 15.5 33.066406 15.5 35 Z "/>
<path style=" fill:#0091f2;" d="M 12 32 C 13.652344 32 15 33.347656 15 35 C 15 36.652344 13.652344 38 12 38 C 10.347656 38 9 36.652344 9 35 C 9 33.347656 10.347656 32 12 32 M 12 31 C 9.789063 31 8 32.789063 8 35 C 8 37.210938 9.789063 39 12 39 C 14.210938 39 16 37.210938 16 35 C 16 32.789063 14.210938 31 12 31 Z "/>
<path style=" fill:#DFF0FE;" d="M 8.5 16 C 8.5 17.933594 6.933594 19.5 5 19.5 C 3.066406 19.5 1.5 17.933594 1.5 16 C 1.5 14.066406 3.066406 12.5 5 12.5 C 6.933594 12.5 8.5 14.066406 8.5 16 Z "/>
<path style=" fill:#0091f2;" d="M 5 13 C 6.652344 13 8 14.347656 8 16 C 8 17.652344 6.652344 19 5 19 C 3.347656 19 2 17.652344 2 16 C 2 14.347656 3.347656 13 5 13 M 5 12 C 2.789063 12 1 13.789063 1 16 C 1 18.210938 2.789063 20 5 20 C 7.210938 20 9 18.210938 9 16 C 9 13.789063 7.210938 12 5 12 Z "/>
</g>
</svg>
