<?xml version="1.0" encoding="iso-8859-1"?>
<!-- Generator: Adobe Illustrator 19.2.0, SVG Export Plug-In . SVG Version: 6.00 Build 0)  -->
<svg xmlns="http://www.w3.org/2000/svg" xmlns:xlink="http://www.w3.org/1999/xlink" version="1.1" id="Layer_1" x="0px" y="0px" viewBox="0 0 40 40" style="enable-background:new 0 0 40 40;" xml:space="preserve" width="480px" height="480px">
<g>
	<path style="fill:#DFF0FE;" d="M20.014,35.424C17.823,34.082,1.5,23.78,1.5,15c0-4.593,2.233-9.5,8.5-9.5   c4.515,0,7.978,3.102,9.571,5.757L20,11.972l0.429-0.714C22.099,8.474,25.49,5.5,30,5.5c5.872,0,8.5,4.771,8.5,9.5   C38.5,24.929,22.226,34.209,20.014,35.424z"/>
	<g>
		<path style="fill:#4788C7;" d="M30,6c5.526,0,8,4.52,8,9c0,9.333-15.036,18.202-17.973,19.845C17.112,33.034,2,23.245,2,15    c0-4.351,2.102-9,8-9c4.306,0,7.616,2.971,9.143,5.515L20,12.944l0.857-1.429C22.457,8.849,25.699,6,30,6 M30,5    c-4.643,0-8.212,3.02-10,6c-1.788-2.98-5.428-6-10-6C3.894,5,1,9.609,1,15c0,9.761,19,21,19,21s19-9.976,19-21    C39,9.667,35.928,5,30,5L30,5z"/>
	</g>
</g>
</svg>