<?xml version="1.0" encoding="UTF-8"?>
<svg width="934.22" height="782.35" data-name="Layer 1" viewBox="0 0 934.21868 782.34673" xmlns="http://www.w3.org/2000/svg">
<title>breaking obstacles</title>
<path transform="translate(-132.89 -58.827)" d="m754.71 579.48c39.873 381.52 192.9 330.19 306.92-209.09 30-141.89-66.595-279.9-209.09-306.92s-279.9 66.595-306.92 209.09 194.01 162.68 209.09 306.92z" fill="#FFFFFF"/>
<path transform="translate(-132.89 -58.827)" d="m261.09 699.23c0 48.273-28.698 65.129-64.098 65.129s-64.098-16.855-64.098-65.129 64.098-109.68 64.098-109.68 64.098 61.411 64.098 109.68z" fill="#FFFFFF"/>
<polygon points="61.763 698.15 62.42 657.75 89.74 607.77 62.522 651.41 62.818 633.24 81.647 597.08 62.896 628.44 62.896 628.44 63.426 595.76 83.589 566.98 63.51 590.63 63.842 530.72 61.757 610.03 61.929 606.76 41.429 575.38 61.6 613.04 59.69 649.52 59.633 648.56 36.001 615.54 59.561 651.98 59.323 656.54 59.28 656.61 59.299 656.98 54.453 749.56 60.928 749.56 61.705 701.74 85.208 665.39" fill="#FFFFFF"/>
<path transform="translate(-132.89 -58.827)" d="m261.09 699.23c0 48.273-28.698 65.129-64.098 65.129s-64.098-16.855-64.098-65.129 64.098-109.68 64.098-109.68 64.098 61.411 64.098 109.68z" fill="#0091f2"/>
<polygon points="61.763 698.15 62.42 657.75 89.74 607.77 62.522 651.41 62.818 633.24 81.647 597.08 62.896 628.44 62.896 628.44 63.426 595.76 83.589 566.98 63.51 590.63 63.842 530.72 61.757 610.03 61.929 606.76 41.429 575.38 61.6 613.04 59.69 649.52 59.633 648.56 36.001 615.54 59.561 651.98 59.323 656.54 59.28 656.61 59.299 656.98 54.453 749.56 60.928 749.56 61.705 701.74 85.208 665.39" fill="#3f3d56"/>
<ellipse cx="467.2" cy="751.85" rx="464" ry="30.5" fill="#3f3d56"/>
<ellipse cx="216.2" cy="748.03" rx="116" ry="20.312" opacity=".1"/>
<ellipse cx="702.2" cy="752.85" rx="116" ry="17.5" opacity=".1"/>
<path transform="translate(-132.89 -58.827)" d="m368.93 446.72l34.335 1.3206s30.374 14.527 30.374 26.412-35.656-13.206-35.656-13.206l-29.053-1.3206z" fill="#ffb9b9"/>
<path transform="translate(-132.89 -58.827)" d="m368.93 446.72l34.335 1.3206s30.374 14.527 30.374 26.412-35.656-13.206-35.656-13.206l-29.053-1.3206z" opacity=".1"/>
<path transform="translate(-132.89 -58.827)" d="m370.25 436.16s6.603 15.847 5.2824 23.771-51.503 5.2824-51.503 5.2824l7.9236-23.771z" fill="#ffb9b9"/>
<polygon points="189.82 663.9 187.18 699.56 209.63 700.88 213.59 666.54" fill="#ffb9b9"/>
<path transform="translate(-132.89 -58.827)" d="m322.71 457.29-5.2824 13.206s-11.885 11.885-9.2442 40.938 3.9618 30.374 3.9618 30.374-10.565 183.56-1.3206 184.88 60.747 26.412 66.03-2.6412 7.9236-146.59 7.9236-146.59l-60.747-109.61z" fill="#2f2e41"/>
<path transform="translate(-132.89 -58.827)" d="m322.71 457.29-5.2824 13.206s-11.885 11.885-9.2442 40.938 3.9618 30.374 3.9618 30.374-10.565 183.56-1.3206 184.88 60.747 26.412 66.03-2.6412 7.9236-146.59 7.9236-146.59l-60.747-109.61z" opacity=".1"/>
<polygon points="249.24 642.77 237.36 659.94 257.17 667.86 274.34 640.13" fill="#ffb9b9"/>
<circle cx="237.36" cy="245.27" r="30.374" fill="#ffb9b9"/>
<path transform="translate(-132.89 -58.827)" d="m346.48 293.53s-26.412 27.732-34.335 29.053 27.732 23.771 27.732 23.771v-7.9236s11.885-11.885 18.488-13.206-11.885-31.694-11.885-31.694z" fill="#ffb9b9"/>
<path transform="translate(-132.89 -58.827)" d="m325.35 450.69-7.9236 19.809s-15.847 39.618 6.603 60.747 87.159 87.159 84.518 101.69-41.785 65.874-29.477 72.555 147.01-17.09 148.33-32.937c0.49522-5.9427-4.3951-17.457-10.701-29.528a310.74 310.74 0 0 0 -43.624 -62.73l-89.619-100.55s-9.2442-19.809-6.603-23.771c0 0-10.565-10.565-42.259-2.6412z" fill="#2f2e41"/>
<path transform="translate(-132.89 -58.827)" d="m318.75 754.42s-6.603 21.129-9.2442 22.45-5.2824 15.847-2.6412 18.488 3.9618 14.527 3.9618 14.527h2.6412l1.3206-13.206s27.36 16.518 31.694 18.488c7.2633 3.3015 39.618 2.6412 38.297-3.9618s-39.618-27.732-38.297-33.015-2.6412-21.129-2.6412-21.129z" fill="#2f2e41"/>
<path transform="translate(-132.89 -58.827)" d="m394.02 725.37l-26.412-10.565s-6.603 10.565-14.527 10.565-14.083 9.6046-13.644 10.085-11.447 16.327-11.447 16.327l2.1339 3.8389 15.034-9.1212 4.2134 17.696a67.516 67.516 0 0 0 13.349 27.291c5.1809 6.3041 11.637 11.652 18.093 10.478 0 0 2.6412 0 0-18.488s2.6412-38.297 2.6412-38.297z" fill="#2f2e41"/>
<path transform="translate(-132.89 -58.827)" d="m325.35 321.27s2.6412 6.603 5.2824 7.9236 10.565 6.603 11.885 11.885 7.9236 21.129 7.9236 21.129 14.527 7.9236 13.206 22.45-2.6412 26.412 0 27.732 5.2824 1.3206 3.9618 5.2824 2.6412 7.9236 3.9618 9.2442 3.9618-1.3206 1.3206 2.6412-1.3206 5.2824 0 6.603 2.6412 1.3206 1.3206 3.9618-50.183 19.809-52.824 19.809-2.6412-2.6412-1.3206-6.603 6.603-7.9236 1.3206-9.2442-6.603-1.3206-6.603-7.9236-22.45-46.221-22.45-46.221-9.2442-30.374 0-43.58 15.847-22.45 21.13-25.091 11.885 0 11.885 0z" fill="#fda730"/>
<path transform="translate(-132.89 -58.827)" d="m281.77 383.33-15.847 43.58l-31.694 93.762s-33.015 46.221-10.565 43.58 25.091-43.58 25.091-43.58l30.374-72.633 27.732-55.465z" fill="#ffb9b9"/>
<path transform="translate(-132.89 -58.827)" d="m297.62 345.04l-5.2824 1.3206s-18.488 36.977-14.527 40.938 25.091 14.527 29.053 13.206 9.2442-39.618 9.2442-39.618z" fill="#fda730"/>
<path transform="translate(-132.89 -58.827)" d="m299.17 292.57c10.246-4.505 22.644-14.368 34.418-22.506 3.8156-2.6377 7.5313-5.4058 11.228-8.2076 7.451-5.647 25.382-7.6056 40.858 2.3175 17.688 11.342 26.32 29.437 21.531 36.906-3.9592 6.1747-17.102 5.0917-31.532-1.8763-2.0289 13.519-6.6678 26.992-11.736 34.896-11.468 17.885-21.116 1.0235-39.001-10.444s-45.215-22.533-25.766-31.084z" fill="#2f2e41"/>
<circle cx="406.2" cy="476.35" r="61" fill="#fda730"/>
<path transform="translate(-132.89 -58.827)" d="m835.09 217.17v112.71l5-2.7083v13l6 16s6 0 6 3-6 8-6 8h-11v53.173l7-16.173h13l9 18s-6 2-6 6 7 12 6 17-5 13-8 16l-13 13h-8v349h58v-606z" fill="#3f3d56"/>
<path transform="translate(-132.89 -58.827)" d="m802.09 479.17l15-8s4 15 0 18-23 11-23 11l12 12h-19z" fill="#3f3d56"/>
<path transform="translate(-132.89 -58.827)" d="m764.72 814.1l4.7914 2.6324s-6.3912 3.1585-8.0569 2.5808-6.7799-4.2179-6.7799-4.2179l-4.4028 4.744-1.5334-4.7872z" fill="#3f3d56"/>
<path transform="translate(-132.89 -58.827)" d="m778.61 807.64s-16.183-10.155-2.0723-7.727a109.91 109.91 0 0 0 26.219 1.2511l2.0723 7.727z" fill="#3f3d56"/>
<path transform="translate(-132.89 -58.827)" d="m799.03 822.94s-15.017-3.3578-3.3659-5.2575a96.314 96.314 0 0 0 20.917 -5.9787l3.3659 5.2575z" fill="#3f3d56"/>
<polygon points="670.2 496.35 670.2 490.35 686.2 490.35 686.2 509.35" fill="#3f3d56"/>
</svg>
