<svg xmlns="http://www.w3.org/2000/svg" width="352.961" height="455.298" viewBox="0 0 352.961 455.298"><g transform="translate(-400.873 -922.539)"><g transform="translate(400.873 935.241)"><rect width="180.125" height="92.314" transform="translate(107.126 0.563)" fill="#0091f2"/><path d="M299.024,178.44h181.25V85H299.024Zm180.125-1.126h-179V86.126h179Z" transform="translate(-192.47 -85)" fill="#0091f2"/><rect width="180.125" height="92.314" transform="translate(0 119.333)" fill="#f2f2f2"/><rect width="180.125" height="92.314" transform="translate(80.345 238.102)" fill="#91c3f4"/><path d="M334.286,622.3q10.979-1.86,21.117-3.195l-2.672-5.18c.9-.313,4.859,2.654,4.859,2.654l-3.507-15.038c4.531.547,6.835,15.9,6.835,15.9l5.063-5.191-2.451,5.836a467.487,467.487,0,0,1,53.578-3.372l-2.287-4.434c.9-.313,4.859,2.654,4.859,2.654l-3.507-15.038c4.531.547,6.835,15.9,6.835,15.9l5.063-5.191-2.6,6.182a300.979,300.979,0,0,1,30.8,2.092c-2.313-6.907-10.171-13.477-10.171-13.477,6,1.785,9.149,4.776,10.794,7.564a121.116,121.116,0,0,0-7-41.847s12.4,26.992,10.821,45.109l-.189,3.217c10.516,1.506,14.652,5.044,14.652,5.044Z" transform="translate(-234.048 -292.071)" fill="#3f3d56"/><path d="M19.908,0A19.908,19.908,0,1,1,0,19.908,19.908,19.908,0,0,1,19.908,0Z" transform="translate(86.245 126.358)" fill="#fda730"/><path d="M395.875,465.506h-23.76v-5.735H359.006v5.735h-24.58v25.4h24.58v31.953h13.109V490.905h23.76l12.29-13.928Z" transform="translate(-208.561 -196.658)" fill="#3f3d56"/><path d="M355.09,412.764h1.126a55.163,55.163,0,1,1,110.326,0h1.126a56.289,56.289,0,0,0-112.578,0Z" transform="translate(-318.725 -201.118)" fill="#3f3d56"/><rect width="1.439" height="56.825" transform="translate(120.231 211.904) rotate(-179.892)" fill="#3f3d56"/><path d="M380.7,341.773c-.129,19.87,13.82,36.069,13.82,36.069s14.158-16.017,14.287-35.887-13.821-36.069-13.821-36.069S380.833,321.9,380.7,341.773Z" transform="translate(-275.259 -179.48)" fill="#0091f2"/><path d="M380.7,341.773c-.129,19.87,13.82,36.069,13.82,36.069s14.158-16.017,14.287-35.887-13.821-36.069-13.821-36.069S380.833,321.9,380.7,341.773Z" transform="translate(-275.259 -179.48)" opacity="0.1"/><rect width="1.439" height="56.825" transform="translate(138.193 211.939) rotate(-179.892)" fill="#3f3d56"/><path d="M348.024,341.835c-.129,19.87,13.82,36.069,13.82,36.069S376,361.887,376.132,342.017s-13.821-36.069-13.821-36.069S348.153,321.965,348.024,341.835Z" transform="translate(-224.655 -179.506)" fill="#0091f2"/><rect width="1.139" height="44.986" transform="translate(44.856 167.034)" fill="#3f3d56"/><path d="M520.8,365.648c-.073,15.731,10.995,28.534,10.995,28.534s11.185-12.7,11.257-28.431-10.995-28.534-10.995-28.534S520.868,349.917,520.8,365.648Z" transform="translate(-486.452 -192.88)" fill="#91c3f4"/><path d="M37.461,0A37.461,37.461,0,1,0,74.923,37.461,37.461,37.461,0,0,0,37.461,0Z" transform="translate(156.913 9.344)" fill="#f2f2f2"/><path d="M403.845,172.707c7.192,0,23.076-7.387,37.2-16.039,17.529-10.736,34.553-24.77,31.577-29.629-.841-1.373-2.926-1.732-6.375-1.1l.247,1.347c2.671-.491,4.478-.32,4.961.467.7,1.149-.848,4.483-7.311,10.4a162.227,162.227,0,0,1-23.814,17.35,162.282,162.282,0,0,1-26.275,13.33c-8.205,3.071-11.88,2.937-12.584,1.789-.483-.789.188-2.479,1.841-4.637l-1.087-.832c-2.135,2.788-2.764,4.811-1.922,6.185C400.883,172.278,402.112,172.707,403.845,172.707Z" transform="translate(-242.081 -102.382)" fill="#3f3d56"/><ellipse cx="7.663" cy="7.663" rx="7.663" ry="7.663" transform="translate(191.379 19.887)" fill="#fda730"/><path d="M5.108,0A5.108,5.108,0,1,1,0,5.108,5.108,5.108,0,0,1,5.108,0Z" transform="translate(191.823 64.447)" fill="#fda730"/><path d="M5.108,0A5.108,5.108,0,1,1,0,5.108,5.108,5.108,0,0,1,5.108,0Z" transform="translate(174.938 46.934)" fill="#fda730"/><path d="M17,22.742C13.924,34.1,3.4,41.137,3.4,41.137S-2.145,29.755.928,18.395,14.527,0,14.527,0,20.07,11.382,17,22.742Z" transform="translate(102.753 414.961) rotate(-60)" fill="#fda730"/><path d="M9.462,8.9C1.03,17.107,0,29.726,0,29.726s12.642-.69,21.074-8.9S30.536,0,30.536,0,17.895.69,9.462,8.9Z" transform="translate(113.875 418.5) rotate(-60)" fill="#91c3f4"/><path d="M406.649,527.97l8.987,1s3.994,17.973,0,41.937-8.987,47.928-8.987,47.928-3.994,77.883-5.991,78.882-19.97,6.99-20.969,1-1-142.786-1-142.786l-13.979,65.9s-2,82.876-5.991,82.876-16.975-1-16.975-7.988-3-98.852-3-98.852,1-67.9,4.992-69.9S406.649,527.97,406.649,527.97Z" transform="translate(-179.803 -274.092)" fill="#2f2e41"/><path d="M366.519,819.687s8.986-1,10.984,0,4.993,7.988,0,11.982-17.973,9.985-21.967,9.985a20.656,20.656,0,0,1-7.988-2l2-16.975Z" transform="translate(-148.091 -399.057)" fill="#2f2e41"/><path d="M469.022,823.366l-1,13.979s-12.98,2-13.979,0-10.984-6.99-11.982-7.988-2-11.982,3.994-12.981,7.988,2,7.988,2Z" transform="translate(-288.37 -397.744)" fill="#2f2e41"/><path d="M482.479,262.346s-21.83-14.038-21.325-23.683,13.666-40.054,13.666-40.054,10.3-21.4,14.388-12.657-5.379,18.059-5.379,18.059l-6.114,29.831,16.615,15.851Z" transform="translate(-324.459 -127.282)" fill="#fab6b6"/><ellipse cx="17.973" cy="17.973" rx="17.973" ry="17.973" transform="translate(191.711 79.14)" fill="#a0616a"/><path d="M396.477,269.173l-3,18.972-21.967-3.994s1-18.972,1-20.969S396.477,269.173,396.477,269.173Z" transform="translate(-177.582 -161.077)" fill="#fab6b6"/><path d="M385.944,303.752s-24.963-5.991-27.958-3.994-17.973,3.994-17.973,3.994l-16.975,25.961,4.993,32.951s1,52.921-1,61.907-12.98,9.985,9.985,11.982,26.96-1,42.936,3,28.957-2,24.962-5.991-10.983-67.9-3-73.89S412.9,322.724,412.9,322.724,385.944,308.745,385.944,303.752Z" transform="translate(-166.34 -176.684)" fill="#3f3d56"/><path d="M472.293,305.56l-3-3-5.991-5.991s-19.471,8.487-18.472,11.483,7.489,20.469,7.489,20.469l8.987,3Z" transform="translate(-294.094 -175.496)" fill="#3f3d56"/><path d="M360.463,213.179l.184-1.44a11.321,11.321,0,0,1,3.6.565,5.909,5.909,0,0,0-.222-2.587,11.5,11.5,0,0,1,3.329,1.447l.726-2.628,9.982,4.919c3.583,1.766,7.361,3.706,9.409,7.136,2.284,3.823,1.886,8.737.325,12.908s-4.155,7.862-6.234,11.8a29.475,29.475,0,0,1-2.833,4.822c-3.768,4.7-11.1,5.646-16.414,2.811a9.5,9.5,0,0,1-4.548-4.68,30.408,30.408,0,0,1-.909-3.876c-.657-2.684-1.42-8.225-3.6-9.923-.959-.747-2.861,1.73-3.656.81-2.043-2.364-1.614-6.011-.345-8.867a64.7,64.7,0,0,1,4.259-8.307C354.2,217.019,360.485,213.006,360.463,213.179Z" transform="translate(-157.169 -137.84)" fill="#2f2e41"/><path d="M289.922,382.069s23.964,22.966,20.969,34.948-26.96,46.93-26.96,46.93-22.966,11.982-25.961,0,15.976-8.987,15.976-8.987l14.978-35.946L271.948,395.05Z" transform="translate(-29.527 -212.065)" fill="#fab6b6"/><path d="M290.013,342.191l11.982-2s8.987,9.985,11.982,13.979,8.987,13.979,8.987,13.979l-20.969,14.978-15.976-16.975Z" transform="translate(-57.043 -194.154)" fill="#3f3d56"/></g><ellipse cx="5.136" cy="5.136" rx="5.136" ry="5.136" transform="matrix(-0.966, 0.259, -0.259, -0.966, 440.479, 932.461)" fill="#91c3f4"/><ellipse cx="12.565" cy="12.565" rx="12.565" ry="12.565" transform="matrix(-0.966, 0.259, -0.259, -0.966, 753.834, 1183.496)" fill="#fda730"/><path d="M4.75,0A4.75,4.75,0,1,1,0,4.75,4.75,4.75,0,0,1,4.75,0Z" transform="matrix(-0.966, 0.259, -0.259, -0.966, 716.83, 1162.397)" fill="#91c3f4"/></g></svg>