<svg xmlns="http://www.w3.org/2000/svg" width="301.944" height="183.186" viewBox="0 0 301.944 183.186"><ellipse cx="109.918" cy="9.89" rx="109.918" ry="9.89" transform="translate(0 163.406)" fill="#3f3d56"/><rect width="119.308" height="80.808" transform="translate(44.337 0)" fill="#3f3d56" opacity="0.3"/><rect width="35.327" height="38.5" transform="translate(51.952 7.404)" fill="#f2f2f2"/><rect width="34.058" height="2.327" transform="translate(109.067 7.404)" fill="#f2f2f2"/><rect width="12.058" height="2.327" transform="translate(75.221 51.827)" fill="#f2f2f2"/><rect width="34.481" height="2.327" transform="translate(52.375 56.058)" fill="#f2f2f2"/><rect width="49.077" height="2.327" transform="translate(101.029 15.865)" fill="#f2f2f2"/><rect width="49.077" height="2.327" transform="translate(101.029 22.423)" fill="#f2f2f2"/><rect width="49.077" height="2.327" transform="translate(101.029 28.981)" fill="#f2f2f2"/><rect width="49.077" height="2.327" transform="translate(101.029 35.538)" fill="#f2f2f2"/><rect width="49.077" height="2.327" transform="translate(101.029 42.096)" fill="#f2f2f2"/><rect width="49.077" height="2.327" transform="translate(101.029 48.654)" fill="#f2f2f2"/><rect width="49.077" height="2.327" transform="translate(101.029 55.212)" fill="#f2f2f2"/><path d="M866.382,220.827a6.252,6.252,0,0,0-1.711-.858,43.62,43.62,0,0,0-12.053-2.624c-3.584-.254-7.468.048-10.267,2.3a3.529,3.529,0,0,0-1.041,1.213,4.443,4.443,0,0,0-.132,2.473,2.791,2.791,0,0,0,.24.931,2.092,2.092,0,0,0,2.11.882c.806-.086,1.561-.427,2.356-.585a10.539,10.539,0,0,1,1.488-.152l4.983-.27a36.291,36.291,0,0,1,9.277.293,9.238,9.238,0,0,1,2.681.924c.694.39,1.162.949,1.806.229C867.251,224.32,867.877,221.995,866.382,220.827Z" transform="translate(-784.409 -191.439)" fill="#2f2e41"/><path d="M876.707,234.588s-6.7-3-9.245.462,1.387,2.08,1.387,2.08l4.391,1.387,4.854-.924Z" transform="translate(-802.456 -202.996)" fill="#f2f2f2"/><path d="M881.292,224.6s-.925,4.391-.231,5.547-3.929,2.773-3.929,2.773l-4.391-1.849s1.156-7.165,0-8.551Z" transform="translate(-807.387 -195.208)" fill="#ffb9b9"/><path d="M881.292,224.6s-.925,4.391-.231,5.547-3.929,2.773-3.929,2.773l-4.391-1.849s1.156-7.165,0-8.551Z" transform="translate(-807.387 -195.208)" opacity="0.1"/><path d="M861.29,196.74a6.939,6.939,0,0,0,6.934,6.934,6.768,6.768,0,0,0,1.232-.111,6.933,6.933,0,1,0-8.165-6.823Z" transform="translate(-798.017 -171.735)" fill="#ffb9b9"/><path d="M846.927,251.888h22.112l-.5-2.177-2.17-9.458-2.509-1.694,0,0-1.178-.8-.586-.4s-.347.159-.747.374c-.116.066-.235.133-.353.205,0,0,0,0,0,0a4.136,4.136,0,0,0-.546.379c-.032.03-.059.055-.087.083-.44.44-1.724,2.775-3.848,1.58a3.217,3.217,0,0,1-.311-.195,15.406,15.406,0,0,1-1.58-1.254c-.446-.408-.736-.723-.973-.941a1.539,1.539,0,0,0-.36-.266.684.684,0,0,0-.324-.078c-.694,0-1.618,1.386-1.618,1.386l-.027.08,0,.006-2.917,8.758Z" transform="translate(-787.839 -205.772)" fill="#f2f2f2"/><path d="M839.037,248.2h-6.7a16.324,16.324,0,0,1,.12-2.318c.205-1.546.709-3.036,1.026-4.563a19.206,19.206,0,0,0,.4-4.07c0-.188-.006-.379-.023-.569a2.607,2.607,0,0,0-.366-1.235c-.159-.243-.376-.451-.546-.683a1.556,1.556,0,0,1-.154-.243v0c-.021-.042-.04-.085-.057-.129a1.043,1.043,0,0,1-.063-.315,1.929,1.929,0,0,1,1.278-1.658,4.777,4.777,0,0,1,2.993-.121,14.242,14.242,0,0,1,2.813,1.151c.3.148.6.3.893.47a4.428,4.428,0,0,1,.946.719,5.985,5.985,0,0,1,1.288,2.777,5.874,5.874,0,0,1,.243,2.369c0,.025-.009.053-.013.078-.252,1.318-1.326,2.308-1.9,3.522a7.712,7.712,0,0,0-.355,4.586c.013.078.028.157.042.235h-1.868Z" transform="translate(-757.838 -202.082)" fill="#2f2e41"/><path d="M898.391,235.674a52.4,52.4,0,0,1,1.825,8.464h9.553q.374-1.022.747-2.046a15.321,15.321,0,0,0,.51-1.574,7.53,7.53,0,0,0,.214-1.9c0-.152-.006-.307-.019-.459a.007.007,0,0,1,0-.008,7.561,7.561,0,0,0-.552-2.342,8.7,8.7,0,0,0-.487-.988c-.444-.8-.981-1.561-1.459-2.348a10.734,10.734,0,0,1-.776-1.506.008.008,0,0,0,0-.006,5.41,5.41,0,0,1-.438-2.1c.015-.933,1.593-2.56-.123-2.4a11.566,11.566,0,0,0-6.188,3.095c-.488.41-.967.836-1.434,1.254a4.819,4.819,0,0,0-1.7,2.312,2.457,2.457,0,0,0-.061.461A6.33,6.33,0,0,0,898.391,235.674Z" transform="translate(-844.472 -198.022)" fill="#2f2e41"/><path d="M866.538,242.617a5.167,5.167,0,0,1,1.085-1.749,4.023,4.023,0,0,1,1.657-.839,9.061,9.061,0,0,1,2.43-.348,2.65,2.65,0,0,1,2.53,1.143,2.7,2.7,0,0,1-.258,2.24,2.2,2.2,0,0,1-.685.926,3.8,3.8,0,0,1-1.468.372,6.774,6.774,0,0,0-2.17.983l-1.714,1.036L865,248.16c.078-.047.05-2.066.141-2.4A23.3,23.3,0,0,1,866.538,242.617Z" transform="translate(-798.3 -207.517)" fill="#ffb9b9"/><path d="M853.51,183.968a1.758,1.758,0,0,1,.763-1,4.031,4.031,0,0,1,.161-1.315c.42-1.241,1.415-1.17,2.353-1.719.407-.238.382-.449.594-.84a3.118,3.118,0,0,1,1.2-1.225,4.32,4.32,0,0,1,1.95-.827c1.5-.1,2.645,1.306,4.075,1.758.63.2,1.308.207,1.942.4a1.787,1.787,0,0,1,1.361,1.292c.043.3-.033.612.011.914.088.6.615,1.021.967,1.515a3.732,3.732,0,0,1,.067,3.823,5.375,5.375,0,0,1-.45.7,4.333,4.333,0,0,1-.475,1.607,8.013,8.013,0,0,1-2.818,2.814,6.663,6.663,0,0,0,.166-1.2.83.83,0,0,0-.051-.4c-.125-.261-.455-.33-.707-.473a1.785,1.785,0,0,1-.74-1.55c-.015-.6.112-1.2.049-1.795a.98.98,0,0,0-.336-.721,1.16,1.16,0,0,0-.633-.151,7.146,7.146,0,0,1-3.124-.568,4.621,4.621,0,0,0-.972-.492,2.068,2.068,0,0,0-2.079,1.039c-.461.686-.691,1.5-1.116,2.212a2.247,2.247,0,0,1-1.983,1.257.329.329,0,0,1-.246-.109.369.369,0,0,1-.045-.209l-.046-3.144A4.76,4.76,0,0,1,853.51,183.968Z" transform="translate(-790.062 -162.576)" fill="#2f2e41"/><path d="M825.684,256.92q-.225,1.856-.273,3.725h5.817v-4.889c-.03-.118-.061-.235-.1-.351a12.567,12.567,0,0,0-1.79-3.036c-.032-.049-.065-.1-.1-.146a7.924,7.924,0,0,1-.724-1.305c-.1-.224-.247-1.309-.408-1.4-.69-.4-1.25,1.309-1.345,1.69-.339,1.356-.632,2.725-.855,4.106Q825.78,256.115,825.684,256.92Z" transform="translate(-743.949 -214.53)" fill="#2f2e41"/><path d="M887.853,257.338h13.354c.114-.269.226-.537.345-.8a23.5,23.5,0,0,1,3.2-5.253,1.39,1.39,0,0,0,.4-.785.667.667,0,0,0-.087-.353,2.308,2.308,0,0,0-1.176-.781,4.055,4.055,0,0,1-1.223-.77,2.622,2.622,0,0,1-.706-1.043,2.271,2.271,0,0,1-.089-.36l-.186.243c-.15.2-.3.4-.457.592a17.92,17.92,0,0,1-5.153,4.9,8.664,8.664,0,0,1-1.684.717.442.442,0,0,1-.355,0,.43.43,0,0,1-.154-.284c-.182-.761-.245-1.546-.379-2.318a13.214,13.214,0,0,0-1.394-4.015c-.379-.7-1.61-3.279-2.391-1.656q-.336.7-.677,1.407c-.142.3-.286.594-.429.893a5.549,5.549,0,0,0-.7,3.11Q887.883,254.063,887.853,257.338Z" transform="translate(-835.516 -211.222)" fill="#2f2e41"/><path d="M841.983,275.563h-1.157l.656-2.177.946-3.137a10.227,10.227,0,0,0,.091,1.589,10.58,10.58,0,0,0,.922,3.139c.091.193.188.387.267.586Z" transform="translate(-760.783 -229.448)" opacity="0.1"/><path d="M927.2,265.38a2.26,2.26,0,0,1-.111,1.373,13.839,13.839,0,0,0-.5,4.014.146.146,0,0,0,.171.175,1.843,1.843,0,0,0,1.506-.357Z" transform="translate(-869.57 -225.955)" opacity="0.1"/><rect width="119.308" height="80.808" transform="translate(182.637 0.832)" fill="#3f3d56" opacity="0.3"/><rect width="35.327" height="38.5" transform="translate(259.002 8.236)" fill="#f2f2f2"/><rect width="34.058" height="2.327" transform="translate(203.156 8.236)" fill="#f2f2f2"/><rect width="12.058" height="2.327" transform="translate(281.848 52.659)" fill="#f2f2f2"/><rect width="34.481" height="2.327" transform="translate(259.425 56.889)" fill="#f2f2f2"/><rect width="49.077" height="2.327" transform="translate(196.175 16.697)" fill="#f2f2f2"/><rect width="49.077" height="2.327" transform="translate(196.175 23.255)" fill="#f2f2f2"/><rect width="49.077" height="2.327" transform="translate(196.175 29.812)" fill="#f2f2f2"/><rect width="49.077" height="2.327" transform="translate(196.175 36.37)" fill="#f2f2f2"/><rect width="49.077" height="2.327" transform="translate(196.175 42.928)" fill="#f2f2f2"/><rect width="49.077" height="2.327" transform="translate(196.175 49.486)" fill="#f2f2f2"/><rect width="49.077" height="2.327" transform="translate(196.175 56.043)" fill="#f2f2f2"/><path d="M185.512,258.062H190.1q.53-1.425.941-2.885a5.764,5.764,0,0,1,1.5-3.052,5.659,5.659,0,0,0,.645-.876,4.113,4.113,0,0,0,.406-2.494,6.475,6.475,0,0,0-.118-.707c-.2-.9-.537-1.771-.819-2.651a1,1,0,0,0-.821-.679,1.628,1.628,0,0,0-.9.1,1.108,1.108,0,0,0-.18.093,2.776,2.776,0,0,0-.971,1.485q-1.437,3.858-2.873,7.717-.279.749-.558,1.5c-.275.736-.548,1.472-.781,2.223C185.555,257.916,185.533,257.987,185.512,258.062Z" transform="translate(74.45 -211.114)" fill="#d0cde1"/><path d="M131,170.595a3.516,3.516,0,0,1,2.41,2.47c.108.548.042,1.118.133,1.669a6.225,6.225,0,0,0,2.14,3.161,5.3,5.3,0,0,1,1.949,3.254c.074,1.417-.954,2.744-.776,4.152.207,1.635,1.934,2.695,2.361,4.287a4.124,4.124,0,0,1-.639,3.147,9.006,9.006,0,0,1-4.962,3.654,20.67,20.67,0,0,1-6.215.81c-2.554.027-5.326-.192-7.245-1.878a5.8,5.8,0,0,1-1.927-3.779c-.182-1.952.633-3.97.071-5.848-.354-1.182-1.241-2.262-1.108-3.489.129-1.2,1.177-2.05,1.9-3.019a12.272,12.272,0,0,0,1.477-3.027l1.366-3.6a4.183,4.183,0,0,1,1.161-1.919c1.12-.871,2.921-.7,4.23-.52A19.788,19.788,0,0,1,131,170.595Z" transform="translate(148.078 -157.504)" fill="#2f2e41"/><path d="M156.044,212.212s-.134,4.01.267,4.411-1.6,3.074-1.6,3.074l-3.609-.134-1.871-1.47,1.6-2.139s.668-3.475.134-4.277S156.044,212.212,156.044,212.212Z" transform="translate(121.981 -187.242)" fill="#a0616a"/><path d="M156.044,212.212s-.134,4.01.267,4.411-1.6,3.074-1.6,3.074l-3.609-.134-1.871-1.47,1.6-2.139s.668-3.475.134-4.277S156.044,212.212,156.044,212.212Z" transform="translate(121.981 -187.242)" opacity="0.1"/><ellipse cx="4.812" cy="4.812" rx="4.812" ry="4.812" transform="translate(271.007 16.883)" fill="#a0616a"/><path d="M119.388,244.033h-3.9c-.146-.264-.283-.539-.442-.789v0a2.16,2.16,0,0,0-.711-.745,2.8,2.8,0,0,1-.527-.315,1.359,1.359,0,0,1-.322-.6,9.309,9.309,0,0,1-.44-2.593c-.006-.3,0-.6-.017-.893a3.756,3.756,0,0,0-.089-.688,5.414,5.414,0,0,0-.578-1.307q-.793-1.444-1.591-2.887a2.019,2.019,0,0,1-.108-.846,2.086,2.086,0,0,1,.343-1.085c.074-.133.154-.267.239-.4a8.784,8.784,0,0,1,1.134-1.447,9.172,9.172,0,0,1,3.228-2.185,1.875,1.875,0,0,0,.434-.212,1.8,1.8,0,0,0,.4-.476c.423-.637.939-1.354,1.7-1.314a1.047,1.047,0,0,1,.808-.055,1.092,1.092,0,0,1,.119.038,7.5,7.5,0,0,1,.848.442,3.937,3.937,0,0,0,2.285.415.774.774,0,0,0,.267-.068,1.37,1.37,0,0,0,.245-.2,1.41,1.41,0,0,1,1.4-.224,1.273,1.273,0,0,1,.558.393c.14.176.237.387.391.552a2.173,2.173,0,0,0,1.644.442,15.193,15.193,0,0,1,3.611.332,6.866,6.866,0,0,1,2.843,1.375l0,0c.114.1.22.2.326.3a2.415,2.415,0,0,1,.563.8c.161.415.14.882.286,1.3.161.472.518.857.662,1.331a5.349,5.349,0,0,0,.277,1.083l-.023.019c-.77.677-1.428,1.565-2.2,2.236a4.44,4.44,0,0,0-1.117,1.248,2.058,2.058,0,0,0-.137.338,5.2,5.2,0,0,0-.114,1.231,9.948,9.948,0,0,1-2.369,5.346c-.023.032-.047.064-.072.093Z" transform="translate(153.965 -197.086)" fill="#d0cde1"/><path d="M98.647,256.168q.273,1.894.55,3.786a16.5,16.5,0,0,0,.377,2.005c.11.408.252.808.351,1.216h5.508a5.276,5.276,0,0,0-.053-.683,11.3,11.3,0,0,0-.688-2.371q-.961-2.6-1.921-5.2c-.273-.738-.508-1.51-.808-2.242-.053-.135-.11-.271-.171-.4-.319-.7-1.206-.415-1.862-.309a1.768,1.768,0,0,0-.52.148,1.343,1.343,0,0,0-.489.461,4.574,4.574,0,0,0-.326,3.237Z" transform="translate(187.256 -216.229)" fill="#d0cde1"/><path d="M167.144,289.2c-.008.03-.1.345-.25.789h4.593c-2.276-.391-4.343-.791-4.343-.791Z" transform="translate(101.866 -243.043)" fill="#2f2e41"/><ellipse cx="5.213" cy="2.807" rx="5.213" ry="2.807" transform="translate(270.205 16.081)" fill="#2f2e41"/><rect width="119.308" height="80.808" transform="translate(106.206 30.58)" fill="#3f3d56"/><ellipse cx="13.962" cy="1.481" rx="13.962" ry="1.481" transform="translate(109.59 102.926)" opacity="0.1"/><rect width="35.327" height="38.5" transform="translate(182.571 37.984)" fill="#f2f2f2"/><path d="M402.556,291.206a.518.518,0,0,1-.608-.251c-.489-.77.411-1.763.216-2.653-.156-.714-.967-1.137-1.133-1.849-.161-.691.335-1.47,0-2.1a1.392,1.392,0,0,0-1.469-.533c-.549.086-1.071.327-1.626.361a7.976,7.976,0,0,1-2.168-.442,1.939,1.939,0,0,0-2.031.508c-.546.779.008,1.864-.182,2.8-.151.74-.771,1.353-.784,2.109,0,.268.7.052.664.318s.3.032.029,0a.528.528,0,0,1-.4-.477c-.032-.221-.448-.3-.443-.519.011-.524-.937-.171-1.093-.671a5.076,5.076,0,0,1,.207-3.541,7.09,7.09,0,0,0,.6-1.44,16.266,16.266,0,0,1,.15-2.112,2.572,2.572,0,0,1,2.284-1.458c.951-.094,1.917.074,2.862-.064a12.471,12.471,0,0,1,2.521-.437,4.188,4.188,0,0,1,2.627,1.466,22.084,22.084,0,0,0,2.12,2.229,4.159,4.159,0,0,1,.68.585,2.283,2.283,0,0,1,.338,1.852c-.114.638-.363,1.246-.468,1.885-.1.6-.068,1.215-.111,1.822a3.2,3.2,0,0,1-.534,1.72,1.623,1.623,0,0,1-1.263.66c-.171,0-.315-.15-.488-.11C402.841,290.914,402.747,291.119,402.556,291.206Z" transform="translate(-196.033 -235.546)" fill="#2f2e41"/><path d="M380.387,381.2c-.154-2.117-.271-3.7-.271-3.7l-1-2.632-3.2,6.331Z" transform="translate(-166.095 -304.507)" fill="#575a89"/><path d="M380.387,381.2c-.154-2.117-.271-3.7-.271-3.7l-1-2.632-3.2,6.331Z" transform="translate(-166.095 -304.507)" opacity="0.1"/><path d="M413.063,318.9s-2.988,7.607-1.268,9.056-9.6-2.445-9.6-2.445l.272-1s3.713-1.449,1.9-5.614S413.063,318.9,413.063,318.9Z" transform="translate(-206.199 -263.02)" fill="#a0616a"/><path d="M413.063,318.9s-2.988,7.607-1.268,9.056-9.6-2.445-9.6-2.445l.272-1s3.713-1.449,1.9-5.614S413.063,318.9,413.063,318.9Z" transform="translate(-206.199 -263.02)" opacity="0.1"/><ellipse cx="6.339" cy="6.339" rx="6.339" ry="6.339" transform="translate(196.27 46.277)" fill="#a0616a"/><path d="M376.85,346.654l.07,1.383c.091,1.792.254,5.149.417,9.022h24.572a12.182,12.182,0,0,0,1.563-2.8,3.022,3.022,0,0,0,.184-.9c.135-2.4-2.016-5.752-3.535-6.071-1.72-.364-4.98-3.8-4.98-3.8a.776.776,0,0,1-.415.626v0a1.686,1.686,0,0,1-.853.186c-1.062,0-5.733-2.156-7.232-2.86-.294-.137-.465-.22-.465-.22a35.165,35.165,0,0,1-5.344,1.813A5.683,5.683,0,0,0,376.85,346.654Z" transform="translate(-189.635 -280.364)" fill="#575a89"/><path d="M398.71,288.963a.519.519,0,0,1-.608-.251c-.489-.77.411-1.762.216-2.653-.156-.714-.967-1.137-1.133-1.849-.161-.691.335-1.47,0-2.1a1.392,1.392,0,0,0-1.469-.533c-.549.086-1.071.327-1.626.361a7.974,7.974,0,0,1-2.168-.442,1.939,1.939,0,0,0-2.031.509c-.546.779.008,1.864-.182,2.8-.151.74-1.872,1.26-2.028.759a5.076,5.076,0,0,1,.208-3.541,7.1,7.1,0,0,0,.6-1.44,16.269,16.269,0,0,1,.15-2.112,2.572,2.572,0,0,1,2.284-1.458c.951-.094,1.917.074,2.862-.064a12.472,12.472,0,0,1,2.521-.437,4.188,4.188,0,0,1,2.627,1.466,22.064,22.064,0,0,0,2.12,2.229,4.163,4.163,0,0,1,.68.585,2.283,2.283,0,0,1,.338,1.852c-.114.638-.363,1.246-.468,1.885-.1.6-.068,1.215-.111,1.822a3.2,3.2,0,0,1-.534,1.72,1.623,1.623,0,0,1-1.263.66c-.171,0-.315-.15-.488-.11C398.995,288.671,398.9,288.875,398.71,288.963Z" transform="translate(-191.1 -233.937)" fill="#2f2e41"/><path d="M453.951,370.857h7.171c.546-4,1-8.187,1-8.187l-1.449-.635-2.945-1.584s-.216.512-.563,1.383C456.421,363.7,455.078,367.206,453.951,370.857Z" transform="translate(-269.877 -294.162)" opacity="0.1"/><path d="M448.021,368.328h8.094c1.2-4.379,2.382-9.138,2.382-9.138l-3.08-2.263-3.622,1S449.675,362.967,448.021,368.328Z" transform="translate(-264.581 -291.632)" fill="#575a89"/><rect width="34.058" height="2.327" transform="translate(126.725 37.984)" fill="#0091f2"/><rect width="12.058" height="2.327" transform="translate(205.417 82.407)" fill="#0091f2"/><rect width="34.481" height="2.327" transform="translate(182.994 86.637)" fill="#0091f2"/><rect width="49.077" height="2.327" transform="translate(119.744 46.445)" fill="#f2f2f2"/><rect width="49.077" height="2.327" transform="translate(119.744 53.003)" fill="#f2f2f2"/><rect width="49.077" height="2.327" transform="translate(119.744 59.561)" fill="#f2f2f2"/><rect width="49.077" height="2.327" transform="translate(119.744 66.118)" fill="#f2f2f2"/><rect width="49.077" height="2.327" transform="translate(119.744 72.676)" fill="#f2f2f2"/><rect width="49.077" height="2.327" transform="translate(119.744 79.234)" fill="#f2f2f2"/><rect width="49.077" height="2.327" transform="translate(119.744 85.791)" fill="#f2f2f2"/><path d="M687.153,427.04,673.8,440.392l-5.612-5.612a1.918,1.918,0,0,0-2.713,0h0a1.918,1.918,0,0,0,0,2.713l7.281,7.281a1.464,1.464,0,0,0,2.069,0l15.037-15.022a1.918,1.918,0,0,0,0-2.713h0A1.918,1.918,0,0,0,687.153,427.04Z" transform="translate(-555.776 -340.768)" fill="#fda730"/><path d="M762.434,656.711c0,15.127,21.085,10.448,46.9,10.448s46.588,4.679,46.588-10.448-21.082-18.417-46.9-18.417S762.434,641.585,762.434,656.711Z" transform="translate(-750.849 -493.496)" opacity="0.1"/><path d="M762.434,646.711c0,15.127,21.085,10.448,46.9,10.448s46.588,4.679,46.588-10.448-21.082-18.417-46.9-18.417S762.434,631.585,762.434,646.711Z" transform="translate(-750.849 -486.322)" fill="#3f3d56"/><path d="M740.375,525.762l.955,1.109s11.617,1.091,11.145,2.976-13.986-2.514-13.986-2.514Z" transform="translate(-640.649 -412.761)" fill="#ffc1c7"/><path d="M791.657,522.425s12.415,4.4,19.173,2.514l-3.143,6.286s-16.03-.471-18.858-3.3S791.657,522.425,791.657,522.425Z" transform="translate(-712.99 -410.367)" fill="#0091f2"/><ellipse cx="8.329" cy="8.329" rx="8.329" ry="8.329" transform="translate(78.746 61.691)" fill="#ffc1c7"/><path d="M810.815,391.662a6.494,6.494,0,0,1-1.079,1.5,13.628,13.628,0,0,1-4.015,3,136.814,136.814,0,0,0,14.3,2.127,7.226,7.226,0,0,1,1.058-5.32,28.361,28.361,0,0,0,2.6-4.909l-5.63.151c-1.021.027-2.046.058-3.068.008a12.888,12.888,0,0,0-2.747-.326C810.734,388.249,811.472,390.326,810.815,391.662Z" transform="translate(-730.842 -313.823)" fill="#ffc1c7"/><path d="M708.9,533.681l-4.715,5.657s-7.858,18.387,9.272,20.272a91.114,91.114,0,0,0,29.859-1.414s6.915-3.3,7.072-.786a40.523,40.523,0,0,0,4.557,16.5l3.3,7.543a4.872,4.872,0,0,1,1.257,4.086c-.471,2.357,10.529,3.143,10.372,0,0,0-1.572-2.672-1.572-4.243s-2.514-5.343-2.514-5.343l-4.557-22.63s.314-11.629-10.372-9.429-25.93-.471-25.93-.471l-3.457-12.1Z" transform="translate(-647.829 -416.751)" fill="#2f2e41"/><path d="M708.9,533.681l-4.715,5.657s-7.858,18.387,9.272,20.272a91.114,91.114,0,0,0,29.859-1.414s6.915-3.3,7.072-.786a40.523,40.523,0,0,0,4.557,16.5l3.3,7.543a4.872,4.872,0,0,1,1.257,4.086c-.471,2.357,10.529,3.143,10.372,0,0,0-1.572-2.672-1.572-4.243s-2.514-5.343-2.514-5.343l-4.557-22.63s.314-11.629-10.372-9.429-25.93-.471-25.93-.471l-3.457-12.1Z" transform="translate(-647.829 -416.751)" opacity="0.1"/><path d="M673.644,534.976s-14.379-5.4-22.394,6.071c0,0-2.043,17.758,6.129,18.544s18.858.629,21.372-2.043,18.387-10.215,18.387-10.215,7.9-4.03,9.451,1.206a56.341,56.341,0,0,1,1.707,6.494s8.172,5.972,11.472,7.072c0,0,2.2,3.143,3.457,3.143s8.957,1.729,8.172-4.086l-12.729-11.629-12.729-12.415s-3.614-5.343-12.886-2.514a191.725,191.725,0,0,1-18.7,4.557Z" transform="translate(-594.898 -418.461)" fill="#2f2e41"/><path d="M659.6,720.911s-2.986,7.543-.472,8.486,7.858.314,7.858.314a71.943,71.943,0,0,1,7.858-.629c1.571.157,8.015-1.1,7.072-3.614s-5.815-1.886-5.815-1.886l-4.4-2.043s-.471-1.571-1.571-.943S665.884,723.582,659.6,720.911Z" transform="translate(-547.458 -552.436)" fill="#cbceda"/><path d="M616.036,634.333s-3.3,7.386,2.043,6.758,9.429-1.729,11-1.886c1.512-.151,5.786-1.611,5.13-4.52a2.59,2.59,0,0,1-.043-.571c0-.39-.53-1.156-4.773-1.039,0,0-3.143,0-4.4-2.2C624.993,630.876,620.279,636.847,616.036,634.333Z" transform="translate(-487.552 -488.174)" fill="#cbceda"/><path d="M842.293,412.668s-11.315-7.072-20.744,0-15.715,39.288-15.715,39.288l21.844-4.872s.943-3.772,2.2-4.4,1.414-3.3,1.414-3.3a9.461,9.461,0,0,0,6.286-9.9C837.107,421.625,842.293,412.668,842.293,412.668Z" transform="translate(-749.482 -329.369)" fill="#0091f2"/><path d="M779.072,421.76h5.815s3.457,3.929,3.929,13.829l1.886,7.857s3.929,9.429,1.571,11-6.914,1.414-7.857-1.729-7.386-21.373-7.386-21.373Z" transform="translate(-692.075 -338.147)" fill="#0091f2"/><path d="M785.644,333.693a8.42,8.42,0,0,0-8.709,1.428c-3.018,2.693-3.627,7.087-4.39,11.06s-2.3,8.4-6.042,9.928a15.742,15.742,0,0,0,5.072-.148l-5.658,5.07,9.531-3.107c2.991-.975,6.133-1.962,9.23-1.412,5.132.912,8.7,5.736,13.633,7.431l-.548-2.673,3.307-.025a6.476,6.476,0,0,1-1.895-2.22,1.833,1.833,0,0,1,1.265-.662c1.379-8.6-3.727-17.1-10.381-22.715a9.6,9.6,0,0,0-4.447-2.443,3.84,3.84,0,0,0-4.251,2.088" transform="translate(-696.981 -274.512)" fill="#2f2e41"/><path d="M335.568,614.159c0,18.089-11.348,32.726-25.372,32.726" transform="translate(-102.707 -476.181)" fill="#3f3d56"/><path d="M428.3,645.952c0-18.292-12.664-33.094-28.313-33.094" transform="translate(-220.811 -475.247)" fill="#fda730"/><path d="M358.908,619.963c0,17.182-7.236,31.086-16.179,31.086" transform="translate(-135.24 -480.344)" fill="#0091f2"/><path d="M432.713,622.611c0-23.373-14.637-42.286-32.726-42.286" transform="translate(-225.224 -451.907)" fill="#3f3d56"/><path d="M394.486,725.857s-3.6-.111-4.683-.883-5.535-1.694-5.8-.456-5.407,6.159-1.345,6.192,9.439-.633,10.521-1.292S394.486,725.857,394.486,725.857Z" transform="translate(-181.659 -554.922)" fill="#a8a8a8"/><path d="M382.581,735.2c4.062.033,9.439-.633,10.521-1.292.824-.5,1.153-2.3,1.263-3.135l.12,0s-.228,2.9-1.31,3.561-6.459,1.325-10.521,1.292c-1.172-.01-1.577-.427-1.555-1.045C381.261,734.963,381.708,735.2,382.581,735.2Z" transform="translate(-181.658 -559.846)" opacity="0.2"/></svg>