<svg xmlns="http://www.w3.org/2000/svg" xmlns:xlink="http://www.w3.org/1999/xlink" width="463.242" height="343.115" viewBox="0 0 463.242 343.115"><defs><linearGradient id="a" x1="0.5" y1="1" x2="0.5" gradientUnits="objectBoundingBox"><stop offset="0" stop-color="gray" stop-opacity="0.251"/><stop offset="0.54" stop-color="gray" stop-opacity="0.122"/><stop offset="1" stop-color="gray" stop-opacity="0.102"/></linearGradient><linearGradient id="b" x1="0.5" y1="1" x2="0.5" y2="0" xlink:href="#a"/><linearGradient id="c" x1="-0.211" y1="3.614" x2="-0.211" y2="0.343" xlink:href="#a"/><linearGradient id="d" x1="-0.036" y1="4.542" x2="-0.036" y2="1.284" xlink:href="#a"/><linearGradient id="e" x1="-0.017" y1="4.446" x2="-0.017" y2="1.187" xlink:href="#a"/><linearGradient id="f" x1="0.551" y1="0.784" x2="0.551" y2="0.225" xlink:href="#a"/><linearGradient id="g" x1="0.5" y1="1" x2="0.5" y2="0" xlink:href="#a"/></defs><g transform="translate(0 -0.002)"><path d="M284.922,71.221c-15.2-6.178-31.26-11.351-47.656-10.692a70.858,70.858,0,0,0-58.582,36.739c-9.617,18.036-10.8,39.18-14.945,59.195-5.1,24.664-14.875,48.1-25.318,71.024-5.61,12.3-11.527,24.889-12.447,38.387-1.28,18.735,7.679,37.409,21.724,49.884s32.711,19.038,51.426,20.473c9.965.765,20.375.057,29.227-4.58,9.364-4.907,16.188-13.775,25.588-18.609,8.713-4.5,18.9-5.111,28.684-4.526a128.449,128.449,0,0,1,37.45,7.957c13.669,5.136,26.382,12.569,40.022,17.774s28.88,8.112,42.823,3.766C416,333.924,426.365,324.029,435.7,313.99a420.4,420.4,0,0,0,41.788-52.869c8.419-12.61,16.253-25.915,19.978-40.615,7.115-28.1-2.678-59.8-24.407-79-17.991-15.9-42.152-22.8-65.8-26.987-21.561-3.819-46.491-4.056-66.338-14.009C321.992,91.007,304.77,79.292,284.922,71.221Z" transform="translate(-88.107 -48.187)" fill="#fda730" opacity="0.1"/><path d="M800.766,139.836c-5.839.233-6.133,15.309-5.77,15.967s-1.325,7.462-1.325,7.462-2.65,10.316-2.343,12.234a3.572,3.572,0,0,1-1.427,3.173c-2.592,1.022-5.843,4.318-6.706,5.222l-.217.233a18.856,18.856,0,0,0-2.952,2.282c-.442.646-1.636.131-1.636.131a31.882,31.882,0,0,0-3.835-.2c-.3.09-.777-.466-1.047-.818-.127-.168-.209-.294-.209-.294l-.1-3.042a2.476,2.476,0,0,0-.409-.254c.069-.343.155-.7.262-1.063a9.111,9.111,0,0,0,3.717-3.336c.1-.155.188-.315.274-.474a1.227,1.227,0,0,0,.773.217,1.534,1.534,0,0,0,.36-.033,2.907,2.907,0,0,0,1.047-.527,5.6,5.6,0,0,0,1.946-2.282,3.712,3.712,0,0,0,.184-.544c-.061.1-.127.2-.192.3a3.144,3.144,0,0,0-.217-2.654,8.71,8.71,0,0,1-1.022-1.5c-.344-.985.307-2,.707-2.969a4.991,4.991,0,0,0,.364-2.8,3.574,3.574,0,0,0-1.513-2.359c-1.607-1.043-3.786-.47-5.647-.973a15.294,15.294,0,0,1-1.942-.781,14.72,14.72,0,0,0-2.973-.924c-1.01-.2-2.233-.221-2.862.568a5.878,5.878,0,0,0-.466.789,2.924,2.924,0,0,1-1.828,1.313,6.853,6.853,0,0,1-1.124.119,1.087,1.087,0,0,0,0-.466c-.474-1.554.883-2.707,2.65-3.4s8.484-5.986,9.265-7.241,6.248-5.193,6.248-5.193,8.178-2.314,10.86-10.746-12.831,5.888-14.393,6.317a15.913,15.913,0,0,0-3.8,2.044l-9.948,5.753a36.049,36.049,0,0,0-5.365,3.7,18.014,18.014,0,0,0-3.933,5.618s-.953,1.554-2.343,3.8a10.354,10.354,0,0,1-3.034,3.226l.045-.082c-.11.135-3.533,4.457-3.835,6.346s-1.7,9.588-1.7,9.588-1.227,6.047-2.069,7.237a20.747,20.747,0,0,1-1.088,3.938c-.4.466-2.044,5.385-1.766,5.884,0,0-1.562,3.406-1.288,4.694l-2.817,6.747s-1.529,3.337-1.427,5.287c.049.945.09,2.044.119,2.944v.409h0v.409c-.151.253-.54.9-.945,1.681a8.749,8.749,0,0,0-1.161,3.431c.065,1.537.069,5.291-.638,6.669l-.208-.082a2.861,2.861,0,0,0-.409,1.358l.049.025c0,.119-.037.241-.049.372-.172,1.566.078,3.745-.315,4.224-.544.662-.274,15.341-.274,15.341s-.883,9.188.883,15.01l-.135,4.559a42.46,42.46,0,0,0,.135,4.907,47.844,47.844,0,0,1,.274,4.96l1.018,7.274s-1.362,11.24-.2,14.017a15.275,15.275,0,0,1,1.227,4.829,7.514,7.514,0,0,0,1.873.724v.409l-.266,6.837v.376s-.033.18-.057.478h0v.168a.206.206,0,0,0,0,.049v.143a1.041,1.041,0,0,0,0,.11.774.774,0,0,1,0,.1v.617h0v.6a1.187,1.187,0,0,0,.033.2.213.213,0,0,0,0,.049,1.052,1.052,0,0,0,.045.225h0a.872.872,0,0,0,.053.221.049.049,0,0,1,0,.025h0a.4.4,0,0,0,.033.115.2.2,0,0,0,0,.053.655.655,0,0,0,.041.139v.033c.041.115.082.229.131.344a.143.143,0,0,0,0,.037c0,.041.037.086.057.127l.025.057.053.11.033.061.057.1.037.061c0,.033.037.065.057.1a.763.763,0,0,1,.041.065l.061.094.045.061.065.094.049.061.074.09.049.057.086.1.045.049.139.135a.208.208,0,0,0,.045.041,1.1,1.1,0,0,0,.1.094l.065.053.09.074.078.057.09.065.086.057.09.057.094.053.094.057.1.049.1.049.1.049.1.045.11.045.11.041.114.041.123.037.192.057.159.041.127.025.131.029h.139l.135.02h1.725l.221-.02h.135l.372-.041s4.633.691,4.784-1.141a1.463,1.463,0,0,1,.021-.294v-.233a.61.61,0,0,1,0-.086v-2.327c-.029-.908-.074-1.75-.1-2.22a2.972,2.972,0,0,0-.025-.409s-1.578-2.38-1.321-3.271a23.523,23.523,0,0,0,.2-3.917s-.613-1.451-1.026-2.735c-.033-.1-.061-.2-.09-.29a15.108,15.108,0,0,0,.965-1.227,15.536,15.536,0,0,0-1.153-9.323.581.581,0,0,1-.249-.478.2.2,0,0,1,0-.049l.789-9.654-.478-5.618s-.339-3.839.409-5.491l1.492-14.544,2.118-8.46s.679-.331,1.227,1.259,1.9,8.791,1.9,8.791l3.271,11.9s.544,4.232,1.018,4.829.478,3.238.478,3.238a8.365,8.365,0,0,1,.883,3.042,13.156,13.156,0,0,0,.335,4.3c.335.859.478,6.951.478,6.951a14.045,14.045,0,0,0,.135,6.019,21.2,21.2,0,0,1,.339,6.878,4.666,4.666,0,0,0,.278.384c-.033.09-.069.18-.1.262-.213.552-.38.94-.38.94a24.1,24.1,0,0,0,.2,3.917c.253.891-1.325,3.271-1.325,3.271s0,.147-.024.409c-.029.47-.074,1.309-.1,2.22v2.331a.516.516,0,0,0,0,.078v.237a1.5,1.5,0,0,0,.021.294c.155,1.832,4.788,1.141,4.788,1.141l.372.045h2.069l.139-.025.135-.02.131-.029.131-.025.16-.041.192-.057.119-.037.115-.041a.865.865,0,0,0,.11-.041l.111-.045.106-.045.1-.045.1-.053.094-.049.1-.053.09-.057.094-.057.082-.057.09-.065a.542.542,0,0,0,.078-.057.751.751,0,0,0,.09-.069l.069-.057.1-.09.045-.045.139-.135.041-.049.09-.094.045-.061a.813.813,0,0,0,.078-.09l.045-.061.069-.094.041-.061.065-.094a.57.57,0,0,1,.041-.065c0-.033.037-.065.057-.1l.037-.061c0-.037.037-.069.053-.1a.455.455,0,0,0,.033-.061c0-.037.037-.074.053-.11l.029-.057c0-.041.037-.082.057-.127v-.037c.045-.115.09-.229.127-.343v-.033a.44.44,0,0,1,.045-.135.31.31,0,0,1,0-.057.156.156,0,0,1,.033-.115v-.02a.054.054,0,0,0,0-.025.993.993,0,0,1,.057-.217h0a1.408,1.408,0,0,1,.045-.221v-.053a1.534,1.534,0,0,1,.033-.2.165.165,0,0,0,0-.07v-.532h0v-.716a.951.951,0,0,1,0-.11v-.143a.2.2,0,0,1,0-.049c0-.057,0-.115,0-.164h0c-.025-.3-.053-.478-.053-.478v-.372l-.258-6.616v-.409c.38-.213.769-.454,1.174-.736,0,0-.069-3.77,1.018-5.287s-.544-5.491-.544-5.491l-.679-14.217.27-6.542a6.5,6.5,0,0,1-.818-3.173,11.543,11.543,0,0,0-1.088-4.089s-.679-2.249.139-2.911-.883-15.129-.883-15.129.409-10.57-.368-16.846v-.1l.217-.1c-.065-.5-.135-.973-.213-1.411l-.229.07a11.511,11.511,0,0,0-.409-1.636l-1.088-4.993s-.025-.262-.053-.642c-.037-.45-.078-1.059-.086-1.595a2.7,2.7,0,0,1,.074-.671l-.057-.049a1.482,1.482,0,0,1,.057-.348l-.237-.2s-.033-.225-.057-.568a6.4,6.4,0,0,1,.294-2.834c.544-1.092,6.133-5.226,6.133-5.226l3.132-6.268s3.124-4.4,5.5-5.258,9.776-5.782,9.776-5.782a24.393,24.393,0,0,0,2.785-3.271l.086-.131h.049v-.086l6.951-10.414c2.78-2.249,2.883-7.041,2.883-7.041l.724-10.95-.237-6.477.335-3.68S806.6,139.607,800.766,139.836Zm-39.818,28.336a8.762,8.762,0,0,0-1.153,4.342v.4a8.733,8.733,0,0,0,.928,3.916,3.208,3.208,0,0,0-.674,1.2,6.5,6.5,0,0,1-1.407-2.637,2.745,2.745,0,0,0-1.088-1.783,7.49,7.49,0,0,1,.065-2.347l.037-.033s.029-.049.086-.131h0c.29-.437,1.267-1.914,2.278-3.594a3.219,3.219,0,0,0,.519.172l.622.155Z" transform="translate(-444.546 -90.657)" fill="url(#a)"/><path d="M855.43,216.673c.062-.139.11-.286.16-.433a9.033,9.033,0,0,0-.409,1C855.266,217.05,855.352,216.862,855.43,216.673Z" transform="translate(-519.221 -140.263)" fill="url(#b)"/><path d="M805.644,239.289s-1.28,6.1-3.639,6.89,2.862,7.769,2.862,7.769l10.823-.593.2-2.261s-2.044-4.526,1.378-10.034S805.644,239.289,805.644,239.289Z" transform="translate(-487.427 -153.155)" fill="#f6bac2"/><path d="M754.524,568.443c-.147,1.82-4.625,1.133-4.625,1.133-7.425,1.03-6.2-6.248-6.2-6.248v-.372l.258-6.788.074-1.893s8.178-3.737,7.969-2.952a4.651,4.651,0,0,0,.331,1.766c.409,1.272.994,2.711.994,2.711a24.441,24.441,0,0,1-.2,3.884c-.245.883,1.28,3.247,1.28,3.247s0,.147.024.409A47.732,47.732,0,0,1,754.524,568.443Z" transform="translate(-453.279 -338.27)" fill="#b77983"/><path d="M798.551,571.6s-4.478.691-4.625-1.133a46.525,46.525,0,0,1,.078-5.115,3.636,3.636,0,0,1,.021-.409s1.525-2.363,1.28-3.247a24.484,24.484,0,0,1-.2-3.889s.16-.38.368-.928c.438-1.149,1.1-3.014.961-3.545-.2-.789,7.969,2.948,7.969,2.948l.082,2.118.25,6.563v.372S805.981,572.631,798.551,571.6Z" transform="translate(-482.991 -339.457)" fill="#b77983"/><path d="M817.543,138.537a16.763,16.763,0,0,1-10.492,10.66s-5.283,3.917-6.035,5.144-7.246,6.493-8.955,7.184-3.014,1.836-2.556,3.373c.409,1.427-4.064,8.411-4.739,9.449h0l-.082.131-1.411,1.476-4.788,2.425-3.9-1.247-.495-4.686,2.069-3.68h0a10.153,10.153,0,0,0,2.932-3.2c1.345-2.233,2.265-3.77,2.265-3.77a17.99,17.99,0,0,1,3.8-5.577,34.411,34.411,0,0,1,5.181-3.68l9.613-5.724a15.5,15.5,0,0,1,3.68-2.044C805.149,144.331,820.135,130.176,817.543,138.537Z" transform="translate(-471.287 -92.773)" fill="#f6bac2"/><path d="M778.486,222.885l6.4-1.28a.41.41,0,0,0-.115.266h0l-.082.131-1.411,1.476-4.788,2.425-3.9-1.247-.495-4.686,2.069-3.68h0a7.334,7.334,0,0,0-.049,6.992Z" transform="translate(-471.287 -140.293)" opacity="0.05"/><path d="M863.514,270.473a1.213,1.213,0,0,0-.045.131,1.8,1.8,0,0,1-.237.409l-2.58,1.259-3.938.409-2.044-4.952,1.362-5.426.752-1.014.209-.229c.078.981.474,6.1.45,7.638-.033,1.705,1.227,1.84,1.227,1.84Z" transform="translate(-518.919 -166.757)" opacity="0.05"/><path d="M796.433,244.231a1.19,1.19,0,0,0-.045.131,23.927,23.927,0,0,1-2.686,3.247s-7.152,4.886-9.445,5.724-5.316,5.213-5.316,5.213l-3.018,6.227s-5.41,4.089-5.933,5.185a6.461,6.461,0,0,0-.282,2.813,2.919,2.919,0,0,0,.049.564L768.162,275l-1.272,1.325-1.791,1.865-2.915-.409-9.086-1.443-1.742-.981-9.67-5.446s0-.339-.025-.859c0-.229,0-.491-.025-.781-.029-.883-.069-1.983-.115-2.919-.1-1.934,1.378-5.246,1.378-5.246l2.719-6.694c-.262-1.276,1.247-4.657,1.247-4.657-.262-.491,1.312-5.377,1.705-5.835a20.8,20.8,0,0,0,1.051-3.9c.818-1.178,2-7.18,2-7.18s1.345-7.609,1.635-9.511,3.6-6.162,3.7-6.293c-2.359,4.326-.294,7.474-.294,7.474l2.363-.409,6.4-1.247c-.294.2-.1,2.359-.1,2.359a2.728,2.728,0,0,1,1.047,1.771,6.791,6.791,0,0,0,1.443,2.719l.033.037a3.2,3.2,0,0,1,1.542-2.2l1.476,1.971.495,2.359s-.135.331-.985.985.36,2.359.36,2.359a12.014,12.014,0,0,1,.527,3.247h0a4.781,4.781,0,0,1,2.784-.949,8.431,8.431,0,0,0,1.672-2.4.989.989,0,0,1,1.411-.654,9.07,9.07,0,0,1,1.607-1.116c.789-.409,1.705.409,1.705.409l.1,3.022s.078.123.2.29c.258.36.72.912,1.01.818a29.956,29.956,0,0,1,3.7.2s1.149.491,1.574-.131a19.4,19.4,0,0,1,2.862-2.261s.47,6.088.47,7.789,1.227,1.84,1.227,1.84Z" transform="translate(-452.034 -140.139)" fill="#d39999"/><path d="M875.876,284.737h-.086C875.945,284.328,875.876,284.737,875.876,284.737Z" transform="translate(-531.404 -180.645)" fill="none"/><circle cx="0.589" cy="0.589" r="0.589" transform="translate(316.975 99.517)" fill="#4b4442"/><circle cx="0.589" cy="0.589" r="0.589" transform="translate(312.677 108.079)" fill="#4b4442"/><circle cx="0.589" cy="0.589" r="0.589" transform="translate(304.217 126.409)" fill="#4b4442"/><circle cx="0.589" cy="0.589" r="0.589" transform="translate(308.216 117.16)" fill="#4b4442"/><path d="M752.894,553.09c-3.075,3.656-6.4,3.594-8.374,3.079l.074-1.893s8.178-3.737,7.969-2.952A4.343,4.343,0,0,0,752.894,553.09Z" transform="translate(-453.808 -338.27)" opacity="0.05"/><path d="M806.806,558.438c-5.221,3.018-8.284-.519-9-1.521.437-1.149,1.1-3.013.961-3.545-.2-.789,7.969,2.948,7.969,2.948Z" transform="translate(-485.309 -339.481)" opacity="0.05"/><path d="M770,429.253c-1.047,1.509-.985,5.246-.985,5.246-6.755,4.854-10.3-1.051-10.3-1.051a21.719,21.719,0,0,0-.327-6.82,14.234,14.234,0,0,1-.131-5.97s-.131-6.035-.462-6.886a13.172,13.172,0,0,1-.327-4.265,8.412,8.412,0,0,0-.851-3.014s0-2.625-.462-3.214-.981-4.792-.981-4.792l-3.144-11.8s-1.313-7.147-1.836-8.722-1.182-1.247-1.182-1.247l-1.889,8.46L745.68,399.6c-.724,1.636-.409,5.446-.409,5.446l.458,5.573-.761,9.576a.194.194,0,0,0,0,.049.584.584,0,0,0,.237.474,15.758,15.758,0,0,1,1.1,9.249c-4.984,7.217-11.02,3.476-11.02,3.476a15.308,15.308,0,0,0-1.177-4.784c-1.116-2.756.2-13.9.2-13.9l-.986-7.217a48.326,48.326,0,0,0-.262-4.907,43.186,43.186,0,0,1-.131-4.853l.131-4.526c-1.705-5.773-.854-14.888-.854-14.888s-.262-14.561.266-15.219c.38-.474.139-2.633.3-4.191a2.924,2.924,0,0,1,.384-1.345l.065-.065c.854-1.051.854-5.246.785-6.89a8.848,8.848,0,0,1,1.125-3.4c.409-.793.781-1.447.92-1.685l.057-.094s3.737.92,13.641,5.643a18.611,18.611,0,0,0,5.634,1.746,12.536,12.536,0,0,0,2.94.045,10.262,10.262,0,0,0,4.228-1.374,7.433,7.433,0,0,0,1.828-1.468,12.223,12.223,0,0,0,0,2.641c.025.38.053.638.053.638l1.092,4.866a12.763,12.763,0,0,1,.409,1.762c.078.433.143.9.2,1.4.765,6.223.356,16.711.356,16.711s1.635,14.364.855,15.018-.135,2.887-.135,2.887a11.641,11.641,0,0,1,1.051,4.064,6.541,6.541,0,0,0,.789,3.148l-.266,6.493.687,14.086S771.048,427.744,770,429.253Z" transform="translate(-446.402 -216.658)" fill="#8499f0"/><path d="M806.13,489.533s4.968-2.862,6.052-1.574S806.13,489.533,806.13,489.533Z" transform="translate(-490.227 -300.682)" opacity="0.05"/><path d="M813.2,496.14s-.818.409.985.932S813.2,496.14,813.2,496.14Z" transform="translate(-494.298 -305.715)" opacity="0.05"/><path d="M739.993,476.8c-.168.049,4.134,2.9,8.018.54C748,477.339,740.962,476.5,739.993,476.8Z" transform="translate(-451.13 -294.245)" opacity="0.05"/><path d="M753.074,490.24a5.273,5.273,0,0,1-3.59,2.658C747.071,493.241,753.074,490.24,753.074,490.24Z" transform="translate(-456.404 -302.228)" opacity="0.05"/><path d="M797.71,502.52s5.659,9,4.575,11.118S797.71,502.52,797.71,502.52Z" transform="translate(-485.249 -309.486)" opacity="0.05"/><path d="M773.519,369.09,772.93,386.7s3.492-.147,4.089-5.949,1.034-10.529,1.034-10.529Z" transform="translate(-470.602 -230.614)" opacity="0.05"/><path d="M773.039,368.13l-.589,17.611s3.492-.147,4.089-5.953,1.043-10.525,1.043-10.525Z" transform="translate(-470.318 -230.047)" fill="#8499f0"/><path d="M743.471,369.274s-2.756,7.389-9.061,3.811a2.91,2.91,0,0,1,.384-1.345c1.726.724,5.724,1.783,7.36-3.009Z" transform="translate(-447.832 -230.402)" opacity="0.05"/><path d="M742.991,367.35s-2.756,7.389-9.061,3.811a2.923,2.923,0,0,1,.384-1.345c1.725.728,5.724,1.783,7.36-3.005Z" transform="translate(-447.549 -229.267)" opacity="0.05"/><path d="M742.991,368.31s-2.756,7.389-9.061,3.811a2.923,2.923,0,0,1,.384-1.345c1.725.728,5.724,1.783,7.36-3.005Z" transform="translate(-447.549 -229.834)" fill="#8499f0"/><path d="M801.406,378.863c-6.927,3.3-9.466-4.473-9.466-4.473l1.635.049c.286,4.968,5.761,3.631,7.638,3.022C801.279,377.911,801.345,378.364,801.406,378.863Z" transform="translate(-481.839 -233.747)" opacity="0.05"/><path d="M802.366,377.417c-6.922,3.291-9.466-4.477-9.466-4.477l1.635.049c.286,4.968,5.761,3.635,7.638,3.026C802.239,376.448,802.3,376.919,802.366,377.417Z" transform="translate(-482.406 -232.89)" opacity="0.05"/><path d="M801.886,377.9c-6.923,3.292-9.466-4.477-9.466-4.477l1.636.049c.286,4.972,5.761,3.635,7.638,3.026C801.759,376.928,801.825,377.4,801.886,377.9Z" transform="translate(-482.123 -233.174)" fill="#8499f0"/><path d="M742.991,368.31s-2.756,7.389-9.061,3.811a2.923,2.923,0,0,1,.384-1.345c1.725.728,5.724,1.783,7.36-3.005Z" transform="translate(-447.549 -229.834)" fill="#fff" opacity="0.1"/><path d="M801.886,377.9c-6.923,3.292-9.466-4.477-9.466-4.477l1.636.049c.286,4.972,5.761,3.635,7.638,3.026C801.759,376.928,801.825,377.4,801.886,377.9Z" transform="translate(-482.123 -233.174)" fill="#fff" opacity="0.1"/><path d="M754.576,583.855a11.6,11.6,0,0,1-.049,1.362c-.147,1.82-4.625,1.133-4.625,1.133-4.089.568-5.561-1.394-6.047-3.271a7.477,7.477,0,0,1-.225-1.865,7.749,7.749,0,0,1,.073-1.12v-.372a2.736,2.736,0,0,1,2.543.519c1.82,1.476,4.232.344,4.232.344a5.679,5.679,0,0,1,2.453.736c.384.331,1.018-.466,1.5-1.227.029.491.074,1.378.1,2.327C754.568,582.907,754.576,583.4,754.576,583.855Z" transform="translate(-453.282 -355.052)" opacity="0.05"/><path d="M747.4,586.1s-1.227,1.2-3.541-.654a7.485,7.485,0,0,1-.225-1.865A21.381,21.381,0,0,0,747.4,586.1Z" transform="translate(-453.282 -357.402)" opacity="0.05"/><path d="M768.479,587.919a.924.924,0,0,1-1.329-.213,8.728,8.728,0,0,0,1.309-1.227C768.471,586.971,768.479,587.461,768.479,587.919Z" transform="translate(-467.185 -359.116)" opacity="0.05"/><path d="M793.869,585.92a12.558,12.558,0,0,0,.045,1.362c.147,1.824,4.625,1.133,4.625,1.133,4.089.573,5.561-1.39,6.047-3.271a7.854,7.854,0,0,0,.151-2.985v-.372a2.768,2.768,0,0,0-2.547.519c-1.82,1.476-4.228.343-4.228.343a5.7,5.7,0,0,0-2.453.74c-.384.331-1.018-.466-1.5-1.227-.029.491-.078,1.378-.106,2.326C793.873,584.967,793.865,585.457,793.869,585.92Z" transform="translate(-482.978 -356.274)" opacity="0.05"/><path d="M811.43,588.145s1.227,1.2,3.537-.654a7.461,7.461,0,0,0,.229-1.861A21.868,21.868,0,0,1,811.43,588.145Z" transform="translate(-493.36 -358.614)" opacity="0.05"/><path d="M793.868,589.979a.92.92,0,0,0,1.325-.213,8.643,8.643,0,0,1-1.308-1.227C793.873,589.027,793.864,589.517,793.868,589.979Z" transform="translate(-482.978 -360.334)" opacity="0.05"/><path d="M774.269,285s-6.3,17.382-3.872,18.891S774.269,285,774.269,285Z" transform="translate(-468.776 -180.908)" opacity="0.05"/><path d="M790.8,271.88s-1.186,5.773-.593,6.3S790.8,271.88,790.8,271.88Z" transform="translate(-480.718 -173.153)" opacity="0.05"/><path d="M812.53,304.77s-7.74,7.213-7.217,7.806S812.53,304.77,812.53,304.77Z" transform="translate(-489.729 -192.594)" opacity="0.05"/><path d="M823.213,260.419c-2.932.9-9.785,2.989-9.862,2.973l.38-1.562a4.782,4.782,0,0,1,2.785-.949,8.428,8.428,0,0,0,1.672-2.4.99.99,0,0,1,1.411-.654,9.308,9.308,0,0,1,1.607-1.116c.789-.409,1.705.409,1.705.409l.1,3.018S823.086,260.251,823.213,260.419Z" transform="translate(-494.494 -164.12)" opacity="0.05"/><path d="M823.213,259.479c-2.932.9-9.785,2.989-9.862,2.969l.38-1.558a4.782,4.782,0,0,1,2.785-.949,8.428,8.428,0,0,0,1.672-2.4.99.99,0,0,1,1.411-.654,9.073,9.073,0,0,1,1.607-1.116c.789-.409,1.705.409,1.705.409l.1,3.022S823.086,259.3,823.213,259.479Z" transform="translate(-494.494 -163.565)" fill="#d39999"/><path d="M808.284,249.893a11.976,11.976,0,0,1,.523,3.247l-1.141.908L805.5,247.8l-.1-3.247-.041-.184.033.037a3.185,3.185,0,0,1,1.542-2.2l1.476,1.967.495,2.359s-.135.331-.985.985S808.284,249.893,808.284,249.893Z" transform="translate(-489.772 -155.614)" opacity="0.05"/><path d="M808.774,249.395a12.017,12.017,0,0,1,.527,3.247l-1.141.92-2.167-6.248-.1-3.247-.045-.184.033.037a3.2,3.2,0,0,1,1.541-2.2l1.476,1.971.495,2.359s-.135.331-.985.985S808.774,249.395,808.774,249.395Z" transform="translate(-490.061 -155.325)" fill="#d39999"/><path d="M822.765,221.546a8.779,8.779,0,1,1-2.57-6.285A8.852,8.852,0,0,1,822.765,221.546Z" transform="translate(-489.594 -138.164)" opacity="0.05"/><path d="M822.753,220.582a8.8,8.8,0,1,1-2.579-6.275A8.856,8.856,0,0,1,822.753,220.582Z" transform="translate(-489.582 -137.597)" fill="#f6bac2"/><path d="M824.373,220.566a8.808,8.808,0,0,1-1.288,4.6c-.131-.233-.209-.5-.339-.74-.184-.331-.609-.609-.924-.409a.944.944,0,0,0-.291.409c-.257.544-.715,1.088-1.316,1.075a1.3,1.3,0,0,1-1.12-.957,3.929,3.929,0,0,1-.065-1.562c.09-1.063.106-2.29-.683-3.005a4.471,4.471,0,0,0-1.709-.765,2.243,2.243,0,0,1-1.472-1.088c-.163-.409-.123-.842-.27-1.227a2.146,2.146,0,0,0-1.59-1.169,4.17,4.17,0,0,1-2.785.953,10.439,10.439,0,0,1-2.74-.433,8.857,8.857,0,0,1,16.593,4.306Z" transform="translate(-491.202 -137.581)" opacity="0.05"/><path d="M812.823,210.162c.147.409.106.85.27,1.227a2.232,2.232,0,0,0,1.472,1.088,4.5,4.5,0,0,1,1.709.761c.789.72.773,1.946.683,3.009a3.925,3.925,0,0,0,.065,1.562,1.312,1.312,0,0,0,1.12.957,1.627,1.627,0,0,0,1.317-1.075.951.951,0,0,1,.29-.409c.315-.209.74.07.924.409a4.046,4.046,0,0,0,.527.994,1.177,1.177,0,0,0,1.075.245,2.711,2.711,0,0,0,1.01-.523,5.535,5.535,0,0,0,1.881-2.261,3.246,3.246,0,0,0-.119-2.862,8.592,8.592,0,0,1-.985-1.5c-.335-.977.294-1.983.683-2.94a5.1,5.1,0,0,0,.348-2.776,3.566,3.566,0,0,0-1.46-2.343c-1.554-1.034-3.655-.466-5.454-.965a13.837,13.837,0,0,1-1.877-.773,13.9,13.9,0,0,0-2.862-.916c-.977-.2-2.159-.221-2.776.56a6.167,6.167,0,0,0-.45.785,2.826,2.826,0,0,1-1.766,1.3c-.528.127-1.08.094-1.636.172a1.8,1.8,0,0,0-1.362.781,2.708,2.708,0,0,0-.09,1.636,1.66,1.66,0,0,1-.409,1.542c-.208.159-.495.237-.621.462a.65.65,0,0,0,.192.773,1.844,1.844,0,0,0,.781.343,11.953,11.953,0,0,0,3.136.536,4.138,4.138,0,0,0,2.92-1.075c-.069.07-.519.041-.6.037A2.389,2.389,0,0,1,812.823,210.162Z" transform="translate(-489.13 -131.229)" fill="#7e646b"/><g transform="translate(315.264 73.139)" opacity="0.05"><path d="M823.961,227.492a2.786,2.786,0,0,1-1.01.527,1.186,1.186,0,0,1-1.071-.249,3.988,3.988,0,0,1-.532-.994c-.184-.331-.609-.609-.924-.409a1,1,0,0,0-.29.409,1.6,1.6,0,0,1-1.317,1.075,1.3,1.3,0,0,1-1.116-.957,3.925,3.925,0,0,1-.07-1.562c.094-1.063.106-2.286-.679-3.005a4.5,4.5,0,0,0-1.713-.765,2.251,2.251,0,0,1-1.472-1.088c-.164-.409-.123-.842-.27-1.227a2.137,2.137,0,0,0-1.59-1.169,4.245,4.245,0,0,1-2.785.957,12.126,12.126,0,0,1-3.136-.54,1.892,1.892,0,0,1-.781-.339.856.856,0,0,1-.127-.147,1.145,1.145,0,0,0-.458.356.65.65,0,0,0,.192.773,1.846,1.846,0,0,0,.781.343,11.95,11.95,0,0,0,3.136.536,4.208,4.208,0,0,0,2.78-.953,2.139,2.139,0,0,1,1.595,1.165c.147.409.106.85.27,1.227a2.241,2.241,0,0,0,1.472,1.088,4.5,4.5,0,0,1,1.709.761c.789.72.773,1.946.683,3.009a3.931,3.931,0,0,0,.065,1.562,1.313,1.313,0,0,0,1.12.957,1.627,1.627,0,0,0,1.317-1.075.951.951,0,0,1,.29-.409c.315-.209.74.07.924.409a3.917,3.917,0,0,0,.531.994,1.169,1.169,0,0,0,1.071.245,2.711,2.711,0,0,0,1.01-.523,5.536,5.536,0,0,0,1.881-2.261,3.59,3.59,0,0,0,.176-.54,5.83,5.83,0,0,1-1.664,1.82Z" transform="translate(-804.565 -214.449)"/><path d="M854,220.144c.086-.188.168-.376.245-.56a3.754,3.754,0,0,0,.151-.433A9.65,9.65,0,0,0,854,220.144Z" transform="translate(-833.787 -215.122)"/><path d="M807.094,211.749a1.678,1.678,0,0,0,.372-1.5,6.678,6.678,0,0,1-.078-.945,1.394,1.394,0,0,0-.225.286,2.71,2.71,0,0,0-.09,1.636A3.18,3.18,0,0,1,807.094,211.749Z" transform="translate(-806 -209.3)"/></g><path d="M768.857,352.716c-.761.053-1.828.11-3.112.155-.891.029-1.889.049-2.956.049-.932,0-1.918,0-2.94-.045a63.025,63.025,0,0,1-9.637-.994c-4.248-.818-8.178-2.228-10.631-4.616.409-.793.781-1.452.92-1.685,0-.229,0-.495-.025-.781,4.314,2.044,17.762,7.724,28.07,4.5a2.921,2.921,0,0,0,.049.564l.233.2A12.4,12.4,0,0,0,768.857,352.716Z" transform="translate(-450.888 -216.256)" opacity="0.05"/><path d="M768.857,351.75c-.761.053-1.828.11-3.112.151-.891.033-1.889.049-2.956.049-.932,0-1.918,0-2.94-.045a63.023,63.023,0,0,1-9.637-.99c-4.248-.818-8.178-2.232-10.631-4.62.409-.793.781-1.448.92-1.685,0-.229,0-.491-.025-.781,4.314,2.044,17.762,7.728,28.07,4.518a2.92,2.92,0,0,0,.049.564l.233.2A12.249,12.249,0,0,0,768.857,351.75Z" transform="translate(-450.888 -215.683)" fill="#4b4442"/><path d="M310.194,538.092a5.622,5.622,0,0,1-1.255-4.281l18.048-147.678,1.5-12.267a5.663,5.663,0,0,1,5.577-4.972l52.865-.352a5.655,5.655,0,0,0,5.618-5.81l-.021-.56a5.659,5.659,0,0,1,5.655-5.851H453.73a5.655,5.655,0,0,1,5.655,5.643,6.023,6.023,0,0,1-.049.76,5.655,5.655,0,0,0,5.463,6.4l53.352,1.362a5.651,5.651,0,0,1,5.43,6.608L496.909,532.882l-.5,2.944a5.531,5.531,0,0,1-.818,2.11Z" transform="translate(-196.306 -223.066)" fill="#b7b6cc"/><g transform="translate(213.348 100.771)" opacity="0.5"><rect width="107.468" height="32.858" transform="matrix(0.568, -0.823, 0.823, 0.568, 0, 88.418)" fill="url(#c)"/></g><rect width="31.239" height="106.029" transform="matrix(0.823, 0.568, -0.568, 0.823, 274.891, 101.967)" fill="#f9fafb"/><rect width="22.054" height="22.054" transform="matrix(0.821, 0.571, -0.571, 0.821, 276.742, 106.1)" fill="#91c3f4"/><rect width="22.084" height="22.084" transform="matrix(0.823, 0.568, -0.568, 0.823, 262.556, 127.924)" fill="#91c3f4" opacity="0.5"/><rect width="22.084" height="22.084" transform="matrix(0.823, 0.568, -0.568, 0.823, 247.397, 149.86)" fill="#91c3f4" opacity="0.3"/><g transform="translate(207.71 95.509)" opacity="0.5"><rect width="107.068" height="32.858" transform="matrix(0.28, -0.96, 0.96, 0.28, 0, 102.769)" fill="url(#d)"/></g><rect width="31.239" height="105.628" transform="matrix(0.96, 0.28, -0.28, 0.96, 238.577, 96.503)" fill="#f9fafb"/><rect width="22.084" height="22.084" transform="matrix(0.96, 0.28, -0.28, 0.96, 242.513, 99.43)" fill="#fda730"/><rect width="22.084" height="22.084" transform="matrix(0.96, 0.28, -0.28, 0.96, 235.034, 125.021)" fill="#fda730" opacity="0.5"/><rect width="22.084" height="22.084" transform="matrix(0.96, 0.28, -0.28, 0.96, 227.555, 150.608)" fill="#fda730" opacity="0.3"/><g transform="translate(207.767 97.293)" opacity="0.5"><rect width="107.068" height="32.858" transform="matrix(0.08, -0.997, 0.997, 0.08, 0, 106.723)" fill="url(#e)"/></g><rect width="31.239" height="105.628" transform="matrix(0.997, 0.08, -0.08, 0.997, 217.338, 98.103)" fill="#f9fafb"/><rect width="22.084" height="22.084" transform="matrix(0.997, 0.08, -0.08, 0.997, 221.77, 100.173)" fill="#0091f2"/><rect width="22.084" height="22.084" transform="matrix(0.997, 0.08, -0.08, 0.997, 219.629, 126.743)" fill="#0091f2" opacity="0.5"/><rect width="22.084" height="22.084" transform="matrix(0.997, 0.08, -0.08, 0.997, 217.492, 153.322)" fill="#73b53b" opacity="0.3"/><g transform="translate(202.218 100.169)" opacity="0.5"><rect width="32.858" height="107.068" transform="translate(0 1.496) rotate(-2.61)" fill="#0091f2"/></g><rect width="31.239" height="105.628" transform="translate(203.329 102.335) rotate(-2.61)" fill="#fff"/><rect width="22.084" height="22.084" transform="translate(207.981 103.827) rotate(-2.61)" fill="#fda730"/><rect width="22.112" height="22.112" transform="translate(210.06 129.616) rotate(-2.862)" fill="#fda730" opacity="0.5"/><rect width="22.084" height="22.084" transform="translate(210.408 157.094) rotate(-2.61)" fill="#fda730" opacity="0.3"/><path d="M354.7,449.044l-27.755,10.737-40.566,15.681c-1.533-2.862-3.79-6.73-6.583-11.347-9.609-15.922-25.506-40.689-39.662-62.454-15.947-24.533-29.673-45.235-29.673-45.235l9.936-2.862L301.56,330Z" transform="translate(-138.119 -207.508)" fill="#e6ecf8"/><path d="M369.07,449.044l-27.755,10.737a208.618,208.618,0,0,1-47.161,4.334c-9.609-15.922-25.507-40.689-39.662-62.454L234.77,353.548,315.93,330Z" transform="translate(-152.489 -207.508)" opacity="0.1"/><path d="M384.132,425.232s-43.117,25.507-107.493,19.737l-51.32-125.12,24.595-4.228,85.024-14.6L383.188,422.8Z" transform="translate(-146.903 -190.377)" fill="#fda730"/><path d="M418.727,422.84a203.817,203.817,0,0,1-33.717-.961c-12.79-1.5-25.654-4.6-36.681-10.288a111.161,111.161,0,0,1-23.977-16.106C306.471,379.4,295.406,356.4,285.47,315.662l85.024-14.6Z" transform="translate(-182.459 -190.401)" opacity="0.1"/><path d="M442.018,363.169s-31.783,6.223-64.134,2.392c-12.79-1.5-25.654-4.6-36.681-10.288a111.262,111.262,0,0,1-23.977-16.106c-22.129-19.909-33.815-50.42-45.865-112.036,0,0,52.837,12.753,105.084-15.182C376.428,211.97,394.039,321.872,442.018,363.169Z" transform="translate(-174.118 -137.727)" fill="#f9fafb"/><path d="M444.189,532.373c-12.79-1.5-25.654-4.6-36.681-10.288a111.258,111.258,0,0,1-23.977-16.106c18.842-1.529,21.548-11.829,21.548-11.829C419.046,516.316,444.189,532.373,444.189,532.373Z" transform="translate(-240.423 -304.539)" opacity="0.1"/><path d="M338.2,287.5s42.966-2.429,54.963-11.69l1.819,5.847s-28.389,12.524-56.782,12.676Z" transform="translate(-213.628 -175.476)" fill="#fda730" opacity="0.3"/><path d="M338.2,349.76s41.6-2.278,73.032-17.46l1.063,2.429S387.353,349.289,338.2,353.1Z" transform="translate(-213.628 -208.867)" fill="#fda730" opacity="0.3"/><path d="M346.39,377.27s41.6-2.278,73.028-17.46l1.063,2.429S395.539,376.8,346.39,380.61Z" transform="translate(-218.469 -225.129)" fill="#fda730" opacity="0.3"/><path d="M354.57,404.82s41.6-2.278,73.032-17.46l1.059,2.429s-24.942,14.561-74.091,18.371Z" transform="translate(-223.304 -241.414)" fill="#fda730" opacity="0.3"/><path d="M362.76,432.37s41.6-2.278,73.028-17.46l1.063,2.429S411.909,431.9,362.76,435.71Z" transform="translate(-228.146 -257.699)" fill="#fda730" opacity="0.3"/><path d="M370.94,459.93s41.6-2.277,73.032-17.46l1.059,2.429s-24.942,14.556-74.091,18.371Z" transform="translate(-232.981 -273.99)" fill="#fda730" opacity="0.3"/><path d="M1064.021,827.208s-17.288-1.043-15.252,11.073a2.946,2.946,0,0,0,1.537,3.112s.029-.9,1.771-.593a7.942,7.942,0,0,0,1.881.09,3.884,3.884,0,0,0,2.294-.949h0s4.862-2.008,6.751-9.948c0,0,1.4-1.734,1.341-2.179l-2.915,1.227a5.224,5.224,0,0,1,.213,3.852s-.094-3.774-.654-3.68c-.115,0-1.517.728-1.517.728s1.713,3.68.409,6.33c0,0,.491-4.518-.957-6.064l-2.045,1.2s2,3.786.646,6.878c0,0,.348-4.739-1.079-6.587l-1.86,1.452s1.885,3.733.736,6.3c0,0-.151-5.52-1.141-5.937a10.594,10.594,0,0,0-1.873,2.044s1.288,2.707.487,4.138c0,0-.491-3.68-.891-3.68a12.15,12.15,0,0,0-1.791,4.089,8.842,8.842,0,0,1,1.4-4.338,4.905,4.905,0,0,0-2.486,1.288s.253-1.726,2.887-1.873a11.485,11.485,0,0,1,1.7-1.963,10.68,10.68,0,0,0-4.2.487s1.4-1.635,4.686-.887l1.836-1.5s-3.447-.474-4.907.049c0,0,1.681-1.439,5.4-.409l2-1.194a18.206,18.206,0,0,0-4.686-.409s1.844-1,5.275.082l1.427-.642s-2.151-.409-2.781-.491-.667-.237-.667-.237a7.418,7.418,0,0,1,4.044.45A18.138,18.138,0,0,0,1064.021,827.208Z" transform="translate(-633.555 -501.399)" fill="#0091f2"/><ellipse cx="12.234" cy="2.069" rx="12.234" ry="2.069" transform="translate(406.325 338.978)" fill="#fda730" opacity="0.1"/><ellipse cx="41.707" cy="3.778" rx="41.707" ry="3.778" transform="translate(291.027 329.545)" fill="#0091f2" opacity="0.1"/><path d="M1093.449,729.412s-9.744-.589-8.587,6.244a1.664,1.664,0,0,0,.863,1.754s.02-.507,1-.335a4.538,4.538,0,0,0,1.059.049,2.182,2.182,0,0,0,1.292-.531h0s2.74-1.133,3.807-5.61c0,0,.789-.977.756-1.227l-1.635.7a2.964,2.964,0,0,1,.119,2.175s-.053-2.13-.368-2.081c-.065,0-.854.409-.854.409s.965,2.044.237,3.569c0,0,.278-2.547-.54-3.422l-1.157.679a5.117,5.117,0,0,1,.364,3.876s.2-2.674-.609-3.713l-1.047.818s1.059,2.106.409,3.549c0,0-.086-3.112-.642-3.345a6.537,6.537,0,0,0-1.059,1.141s.728,1.529.278,2.335c0,0-.278-2.073-.5-2.081a6.828,6.828,0,0,0-1.01,2.31,5,5,0,0,1,.789-2.453,2.741,2.741,0,0,0-1.4.728s.143-.973,1.635-1.055a6.52,6.52,0,0,1,.957-1.108,6.026,6.026,0,0,0-2.372.274,2.664,2.664,0,0,1,2.641-.5l1.039-.846a8.543,8.543,0,0,0-2.768.029s.948-.818,3.046-.221l1.129-.675a10.187,10.187,0,0,0-2.646-.225,4.039,4.039,0,0,1,2.973.045l.818-.36s-1.226-.241-1.57-.278-.376-.135-.376-.135a4.218,4.218,0,0,1,2.281.254A9.891,9.891,0,0,0,1093.449,729.412Z" transform="translate(-654.932 -443.597)" fill="#0091f2"/><ellipse cx="6.898" cy="1.165" rx="6.898" ry="1.165" transform="translate(424.913 293.24)" fill="#fda730" opacity="0.1"/><path d="M950.153,743.908s-11.768-.712-10.378,7.536a2.008,2.008,0,0,0,1.043,2.118s0-.613,1.227-.409a5.375,5.375,0,0,0,1.28.061,2.642,2.642,0,0,0,1.562-.646h0s3.308-1.366,4.6-6.771c0,0,.953-1.178.912-1.484l-2.008.85a3.549,3.549,0,0,1,.143,2.621s-.065-2.568-.446-2.511c-.078,0-1.03.5-1.03.5s1.165,2.494.286,4.31c0,0,.335-3.075-.65-4.13l-1.4.818s1.362,2.58.438,4.682c0,0,.237-3.226-.732-4.5l-1.268.99s1.284,2.539.5,4.285c0,0-.1-3.758-.773-4.04a7.7,7.7,0,0,0-1.276,1.378s.875,1.844.331,2.817c0,0-.335-2.5-.609-2.515a8.555,8.555,0,0,0-1.227,2.793,6.04,6.04,0,0,1,.953-2.952,3.31,3.31,0,0,0-1.688.879s.172-1.174,1.963-1.276a7.542,7.542,0,0,1,1.157-1.333,7.245,7.245,0,0,0-2.862.327s.948-1.1,3.185-.6l1.251-1.022a10.4,10.4,0,0,0-3.34.033s1.145-.977,3.68-.262l1.361-.818a12.38,12.38,0,0,0-3.193-.274,4.889,4.889,0,0,1,3.59.057l.973-.437s-1.464-.286-1.893-.331-.45-.164-.45-.164a5.053,5.053,0,0,1,2.752.3A12.624,12.624,0,0,0,950.153,743.908Z" transform="translate(-569.158 -452.164)" fill="#91c3f4"/><ellipse cx="8.329" cy="1.407" rx="8.329" ry="1.407" transform="translate(364.561 300.711)" fill="#fda730" opacity="0.1"/><ellipse cx="12.234" cy="2.069" rx="12.234" ry="2.069" transform="translate(10.112 332.812)" fill="#fda730" opacity="0.1"/><path d="M68.1,820.482s6.976-.212,9.081-1.709,10.733-3.271,11.257-.887,10.488,11.948,2.609,12.013-18.306-1.227-20.408-2.506S68.1,820.482,68.1,820.482Z" transform="translate(-53.969 -495.214)" fill="#a8a8a8"/><path d="M91.174,834.487c-7.879.065-18.306-1.227-20.408-2.506-1.595-.973-2.233-4.469-2.453-6.08H68.08s.442,5.63,2.539,6.91,12.557,2.576,20.416,2.535c2.273-.021,3.058-.818,3.018-2.044C93.734,834.021,92.867,834.475,91.174,834.487Z" transform="translate(-53.957 -500.64)" opacity="0.2"/><rect width="69.785" height="124.883" transform="matrix(0.309, -0.951, 0.951, 0.309, 322.902, 66.368)" fill="url(#f)"/><rect width="68.824" height="123.157" transform="matrix(0.309, -0.951, 0.951, 0.309, 323.871, 66.18)" fill="#f6f7f9"/><g transform="translate(344.931 24.13)" opacity="0.2"><circle cx="12.823" cy="12.823" r="12.823" fill="#0091f2"/></g><g transform="translate(388.431 31.305)" opacity="0.2"><rect width="3.512" height="55.867" transform="matrix(0.309, -0.951, 0.951, 0.309, 0, 3.34)" fill="#fda730"/></g><g transform="translate(385.662 39.821)" opacity="0.2"><rect width="3.512" height="28.459" transform="matrix(0.309, -0.951, 0.951, 0.309, 0, 3.34)" fill="#fda730"/></g><g transform="translate(382.889 48.343)" opacity="0.2"><rect width="3.512" height="46.029" transform="matrix(0.309, -0.951, 0.951, 0.309, 0, 3.34)" fill="#fda730"/></g><g transform="translate(380.121 56.861)" opacity="0.2"><rect width="3.512" height="55.867" transform="matrix(0.309, -0.951, 0.951, 0.309, 0, 3.34)" fill="#fda730"/></g><g transform="translate(413.536 81.654)" opacity="0.5"><rect width="6.792" height="15.46" transform="matrix(0.309, -0.951, 0.951, 0.309, 0, 6.459)" fill="#0091f2"/></g><path d="M845.921,462.543a3.719,3.719,0,0,0-.041-.409,2.094,2.094,0,0,0-.069-.409c-.053-.278-.111-.552-.176-.818-.033-.127-.065-.258-.1-.38a10.369,10.369,0,0,0-2.045-3.954c-.053-.065-.11-.127-.164-.188s-.221-.237-.331-.348-.213-.209-.319-.3-.2-.18-.3-.262c-.2-.159-.38-.294-.54-.409a3.363,3.363,0,0,0-.331-.213,1.818,1.818,0,0,0-.769-.25l-1.7-.168h0l-2.318-.229-8.288-3.218-.327.114a18.752,18.752,0,0,1-.613-2.044,1.834,1.834,0,0,0,.654-.478,1.493,1.493,0,0,0,.45-.577c.209-.482-.192-1.509-.11-2.1a9.9,9.9,0,0,1,1.022-2.711,12.576,12.576,0,0,0,1.37-5.843,6.59,6.59,0,0,0-2.723-5.185c-.879-.585-1.914-.9-2.83-1.427-.711-.409-1.337-.957-2.016-1.423a11.588,11.588,0,0,0-11.416-.818,55.688,55.688,0,0,0-4.813,3.132,8.124,8.124,0,0,1-5.438,1.5,1.345,1.345,0,0,0-.057.237l-.159-.02c-.327.891.474,1.775,1.227,2.384,1.4,1.157,2.993,2.31,4.821,2.351a5.065,5.065,0,0,1,2.1.155,1.929,1.929,0,0,1,.409.245,9.11,9.11,0,0,0,2.862,9.081l-4.232-1.521s-.176.09-.45.262l-5.872-3.909s-11.772-4.269-15.043,2.38,14.176,3.218,14.176,3.218l3.733,2.044a3.4,3.4,0,0,0,.409,2.241l10.177,6.289A53.773,53.773,0,0,1,809.7,460.2c-.871,0-3.271.859-4.8,4.289s-6.98,20.166-11.776,22.955S775.686,508.9,775.686,508.9l.057.147c-.225.061-.446.123-.663.2a13.4,13.4,0,0,0-6.571,4.956,2.1,2.1,0,0,0,1.472,3.316c4.992.634,7.72-1.668,9.032-3.406.086-.11.164-.221.237-.331a1.746,1.746,0,0,0,1.227.057l6.1-4.935s-4.776,4.7-1.975,9l-.213.3a68.251,68.251,0,0,0-10.222,22.252s-2.617,1.93-2.834,9.654-2.838,20.167-2.838,20.167-1.742,14.806-.654,19.308c0,0,.127.18.36.454-.082.1-.172.2-.27.311-.953,1.03-2.67,2.453-4.669,2.044-3.05-.646-3.05,4.719,1.308,5.148a116.207,116.207,0,0,1,11.907,2.388,2.506,2.506,0,0,0,3.107-2.674,22.657,22.657,0,0,0-1.309-5.9c-.045-.1-.09-.2-.135-.3.127-.123.257-.245.384-.376,0,0,0-9.441,1.529-12.013,0,0,4.142-19.524,3.921-24.46-.168-3.86,10.75-18.895,15.5-25.245l-.041-.241c1.227-1.635,1.987-2.617,1.987-2.617l3.676,23.389s1.746,5.148,3.925,7.937c0,0,9.376,17.807,10.468,23.384a17.587,17.587,0,0,0,3.3,7.7l-.282.27a4.773,4.773,0,0,1-4.113,1.476c-3.05-.646-3.05,4.719,1.309,5.148a117.094,117.094,0,0,1,11.9,2.392,2.511,2.511,0,0,0,3.112-2.678,19.348,19.348,0,0,0-1.677-6.649,4.558,4.558,0,0,0-.249-.409,2.3,2.3,0,0,0,.867-.609S828,573.916,828,570.26c0,0-2.4-13.943-10.463-19.091,0,0,.76-17.443,3.058-27.15.057-.237.115-.474.172-.7a64.625,64.625,0,0,0,6.362-1.325l.217-6.436,1.092,5.148,12.209-7.507s-.106-1.353-.311-3.426c-.106-1.039-.233-2.257-.384-3.578-.123-1.055-.262-2.175-.409-3.32-.041-.286-.078-.576-.119-.863-.159-1.157-.335-2.327-.523-3.471q-.11-.646-.221-1.276c-.1-.56-.2-1.108-.311-1.636-.053-.266-.11-.531-.164-.789s-.115-.515-.172-.765-.115-.491-.172-.732c-.033-.118-.061-.237-.09-.352-.061-.233-.123-.462-.184-.683a12.267,12.267,0,0,1-.442-2.813V488.36a8.128,8.128,0,0,1,.11-1.128c.025-.184.057-.372.094-.556a12.476,12.476,0,0,1,.617-2.192c.135-.356.29-.707.458-1.055.409-.818.818-1.689,1.251-2.617.221-.462.442-.936.662-1.419s.446-.973.671-1.472c2.122-4.731,4.216-10,4.776-13.465.057-.364.1-.707.123-1.03A6.593,6.593,0,0,0,845.921,462.543Z" transform="translate(-463.622 -265.064)" fill="url(#g)"/><path d="M847.373,473.03l-7.192-4.862s-11.42-4.232-14.593,2.327,13.747,3.173,13.747,3.173l7.192,4.015Z" transform="translate(-501.493 -288.386)" fill="#ae6e79"/><rect width="68.793" height="107.093" transform="matrix(0.541, -0.841, 0.841, 0.541, 267.848, 224.981)" fill="#f9fafb"/><rect width="19.463" height="4.58" transform="matrix(0.536, -0.844, 0.844, 0.536, 281.197, 220.944)" fill="#b7b6cc"/><rect width="42.745" height="4.199" transform="matrix(0.536, -0.844, 0.844, 0.536, 293.552, 224.272)" fill="#b7b6cc"/><rect width="42.745" height="4.199" transform="matrix(0.536, -0.844, 0.844, 0.536, 301.124, 229.079)" fill="#b7b6cc"/><rect width="42.745" height="4.199" transform="matrix(0.536, -0.844, 0.844, 0.536, 308.694, 233.892)" fill="#b7b6cc"/><rect width="42.685" height="4.193" transform="matrix(0.541, -0.841, 0.841, 0.541, 316.526, 240.868)" fill="#b7b6cc"/><rect width="42.745" height="4.199" transform="matrix(0.536, -0.844, 0.844, 0.536, 323.834, 243.511)" fill="#fff"/><rect width="42.745" height="4.199" transform="matrix(0.536, -0.844, 0.844, 0.536, 331.406, 248.317)" fill="#fff"/><rect width="11.069" height="11.069" transform="matrix(0.536, -0.844, 0.844, 0.536, 363.193, 227.822)" fill="#b7b6cc"/><path d="M909.929,828.665a112.317,112.317,0,0,0-11.547-2.355c-4.232-.409-4.232-5.724-1.268-5.078a4.58,4.58,0,0,0,3.986-1.452,9.353,9.353,0,0,0,.818-.9,2.454,2.454,0,0,1,1.37-.838c1.586-.344,4.907-.867,6.914.225a2.989,2.989,0,0,1,1.1,1.2,19.637,19.637,0,0,1,1.636,6.542,2.453,2.453,0,0,1-3.005,2.649Z" transform="translate(-542.775 -495.743)" fill="#bebed0"/><path d="M779.064,833.861a112,112,0,0,0-11.543-2.355c-4.232-.409-4.232-5.725-1.271-5.074,1.938.409,3.606-.985,4.526-2,.115-.123.217-.241.3-.352a2.456,2.456,0,0,1,1.366-.818c1.586-.348,4.907-.871,6.918.225a3.742,3.742,0,0,1,1.452,1.934,22.892,22.892,0,0,1,1.267,5.818,2.453,2.453,0,0,1-3.017,2.621Z" transform="translate(-465.422 -498.824)" fill="#bebed0"/><path d="M790.368,825.4c-5.05,5.205-9.38-.1-10.038-.973.114-.123.217-.241.3-.352a2.455,2.455,0,0,1,1.366-.818c1.586-.348,4.907-.871,6.918.225A3.53,3.53,0,0,1,790.368,825.4Z" transform="translate(-474.976 -498.824)" opacity="0.1"/><path d="M920.1,819.474c-2.187,1.492-9.552,1.124-9.552,1.124a6.9,6.9,0,0,1-.667-.818,9.333,9.333,0,0,0,.818-.9,2.455,2.455,0,0,1,1.37-.838c1.586-.344,4.907-.867,6.914.225A2.987,2.987,0,0,1,920.1,819.474Z" transform="translate(-551.554 -495.742)" opacity="0.1"/><path d="M843.286,717.052c-1.484,1.905-9.94,1.48-9.94,1.48s-2.539-2.539-3.6-8.035S819.6,687.445,819.6,687.445c-2.114-2.752-3.807-7.826-3.807-7.826l-3.594-23.053s-17.341,22.841-17.128,27.706-3.811,24.125-3.811,24.125c-1.48,2.539-1.48,11.858-1.48,11.858-5.5,5.725-10.149-1.059-10.149-1.059-1.059-4.441.634-19.034.634-19.034s2.539-12.267,2.748-19.88,2.752-9.515,2.752-9.515a67.829,67.829,0,0,1,9.932-21.941c1.276-1.828,2.122-2.805,2.122-2.805l34.261,4.019a21.579,21.579,0,0,0-1.472,4.539c-2.228,9.568-2.969,26.762-2.969,26.762,7.826,5.074,10.153,18.809,10.153,18.809C837.787,703.727,843.286,717.052,843.286,717.052Z" transform="translate(-474.354 -394.311)" fill="#5c5c8e"/><g transform="translate(309.787 251.701)" opacity="0.05"><path d="M817.339,674.627l-.442-2.817s-17.341,22.841-17.128,27.706-3.807,24.124-3.807,24.124c-1.484,2.539-1.484,11.858-1.484,11.858a7.229,7.229,0,0,1-3.308,2.122c1.664.437,3.68.115,5.847-2.122,0,0,0-9.306,1.48-11.858,0,0,4.019-19.246,3.807-24.124C802.141,695.71,812.727,680.883,817.339,674.627Z" transform="translate(-791.17 -661.257)"/><path d="M864.768,700.121s-2.327-13.747-10.149-18.809c0,0,.74-17.194,2.965-26.762a21.551,21.551,0,0,1,1.476-4.539L824.8,646s-.082.09-.229.27l31.951,3.75a21.563,21.563,0,0,0-1.472,4.539c-2.228,9.568-2.969,26.762-2.969,26.762,7.826,5.074,10.153,18.809,10.153,18.809,0,3.594,5.5,16.92,5.5,16.92-.875,1.12-4.171,1.435-6.734,1.5,2.045.053,8.043.074,9.27-1.5C870.268,717.04,864.768,703.715,864.768,700.121Z" transform="translate(-810.913 -646)"/></g><path d="M792.354,633.479a7.728,7.728,0,0,1-1,1.75c-1.272,1.713-3.917,3.979-8.758,3.357a2.081,2.081,0,0,1-1.431-3.271,13.03,13.03,0,0,1,6.375-4.907,11.641,11.641,0,0,1,2.7-.548Z" transform="translate(-475.24 -384.758)" fill="#ae6e79"/><path d="M888.892,485.083l-16.961-6.2s-4.866,2.539-2.96,6.133l16.515,10.365Z" transform="translate(-527.111 -295.513)" fill="#42383c"/><path d="M889.046,485.253l-16.965-6.2s-4.866,2.535-2.96,6.133l16.494,10.361Z" transform="translate(-527.199 -295.613)" opacity="0.1"/><path d="M906.624,468.447s-.213,9.94,4.232,13.326-12.9,5.287-12.9,5.287,2.752-10.153,0-15.44S906.624,468.447,906.624,468.447Z" transform="translate(-544.25 -289.098)" fill="#ae6e79"/><path d="M855.8,649.97a21.571,21.571,0,0,0-1.472,4.539c-20.444,3.124-34.694-5.385-34.694-5.385-.078-.123-.151-.245-.217-.368,1.276-1.828,2.122-2.805,2.122-2.805Z" transform="translate(-498.082 -394.269)" opacity="0.1"/><path d="M802.127,633.508a7.737,7.737,0,0,1-1,1.75c-1.958-.327-3.525-4.089-3.815-4.8a11.638,11.638,0,0,1,2.7-.548Z" transform="translate(-485.013 -384.788)" opacity="0.1"/><path d="M849.931,490.78l-7.613,2.748-3.173,4.232s-6.542,2.114-7.4,2.114-3.173.846-4.653,4.228-6.767,19.888-11.42,22.632-16.92,21.148-16.92,21.148,2.114,5.724,4.653,4.866l5.921-4.866s-4.653,4.653-1.906,8.885c0,0,17.345,10.361,41.245,4.015l.209-6.342,1.059,5.074,11.858-7.4s-1.059-13.653-2.969-20.6a12.562,12.562,0,0,1,.818-8.754c3.071-6.4,7.81-17.087,7.233-20.984-.683-4.592-3.271-6.587-4.269-7.188a1.766,1.766,0,0,0-.744-.249l-3.872-.384Z" transform="translate(-485.864 -302.547)" fill="#42383c"/><path d="M853.889,542.76S849.657,562.428,845,565.6s-17.128,13.326-17.554,15.018" transform="translate(-502.829 -333.273)" opacity="0.05"/><path d="M849.235,541.21s-4.228,19.668-8.881,22.841-17.133,13.326-17.554,15.014" transform="translate(-500.08 -332.357)" fill="#42383c"/><path d="M897.28,502.084s14.593-4.866,18.809-3.6" transform="translate(-544.106 -306.977)" opacity="0.1"/><g transform="translate(363.351 188.233)" opacity="0.05"><path d="M933.252,527.675c3.071-6.4,7.81-17.087,7.233-20.984-.683-4.592-3.271-6.587-4.269-7.188a1.766,1.766,0,0,0-.744-.249l-1.635-.164a1.635,1.635,0,0,1,.491.2c.99.605,3.586,2.6,4.265,7.192.576,3.893-4.162,14.585-7.229,20.984a12.553,12.553,0,0,0-.818,8.75c1.914,6.951,2.973,20.6,2.973,20.6l-10.2,6.375.258,1.227,11.858-7.4s-1.059-13.653-2.969-20.6A12.562,12.562,0,0,1,933.252,527.675Z" transform="translate(-922.85 -495.692)"/><path d="M895.479,463.31l1.832.184-7.965-3.144-.715.258Z" transform="translate(-888.63 -460.35)"/></g><path d="M887.45,587.1s6.542-3.594,8.672-2.748,9.94-.213,9.94-.213" transform="translate(-538.296 -357.733)" opacity="0.05"/><path d="M905.916,472.316c-.241-2.122.74-1.8.74-1.8s-11.42-2.114-8.673,3.173a12.111,12.111,0,0,1,1.161,4.649h.11C902.428,478.343,904.28,474.794,905.916,472.316Z" transform="translate(-544.27 -290.322)" opacity="0.05"/><circle cx="9.094" cy="9.094" r="9.094" transform="translate(345.879 168.987)" fill="#ae6e79"/><path d="M886.822,449.968a12.674,12.674,0,0,0,1.329-5.761,6.532,6.532,0,0,0-2.641-5.115c-.85-.572-1.856-.879-2.744-1.4-.691-.409-1.3-.945-1.959-1.4a11.085,11.085,0,0,0-11.073-.818,50.838,50.838,0,0,0-4.665,3.091,7.818,7.818,0,0,1-5.275,1.476c-.319.879.462,1.746,1.178,2.351,1.362,1.141,2.9,2.278,4.678,2.314a4.895,4.895,0,0,1,2.044.155,2.93,2.93,0,0,1,1.038.965,19.038,19.038,0,0,1,2.159,3.659,3.035,3.035,0,0,0,.965,1.423c.818.523,1.877.086,2.862.049a5.89,5.89,0,0,1,3.974,1.9,12.134,12.134,0,0,0,3.582,2.711c1.051.409,3.152.384,3.68-.871.2-.474-.188-1.488-.106-2.069A10,10,0,0,1,886.822,449.968Z" transform="translate(-521.904 -269.197)" opacity="0.1"/><path d="M887.287,449.438a12.618,12.618,0,0,0,1.329-5.757,6.541,6.541,0,0,0-2.637-5.115c-.854-.576-1.86-.883-2.744-1.407-.691-.409-1.3-.94-1.958-1.4a11.085,11.085,0,0,0-11.073-.818,50.883,50.883,0,0,0-4.665,3.087,7.8,7.8,0,0,1-5.275,1.476c-.319.883.458,1.75,1.178,2.351,1.362,1.141,2.9,2.277,4.678,2.318a4.829,4.829,0,0,1,2.045.155,2.861,2.861,0,0,1,1.038.965,18.8,18.8,0,0,1,2.155,3.656,3.043,3.043,0,0,0,.969,1.423c.818.523,1.877.086,2.862.049a5.9,5.9,0,0,1,3.97,1.905,12.035,12.035,0,0,0,3.586,2.707c1.051.409,3.153.384,3.68-.871.2-.474-.184-1.488-.1-2.069A10.005,10.005,0,0,1,887.287,449.438Z" transform="translate(-522.182 -268.884)" fill="#42383c"/><path d="M495.58,578.858a4.216,4.216,0,0,1-2.707.957l-182.679-.777a5.623,5.623,0,0,1-1.255-4.281l18.048-147.678,11.318-.123a4.277,4.277,0,0,1,4.171,3.157l2.114,7.8a4.277,4.277,0,0,0,4.228,3.157l45.17-1.084a4.277,4.277,0,0,0,4.175-4.277v-5.168a4.277,4.277,0,0,1,4.228-4.277l62.592-.675a4.277,4.277,0,0,1,4.24,3.471l27.682,144.747.18.932a4.252,4.252,0,0,1-1.5,4.117Z" transform="translate(-196.306 -264.012)" opacity="0.1"/><path d="M409.145,430.6l-62.593.675a4.277,4.277,0,0,0-4.232,4.273v5.172a4.277,4.277,0,0,1-4.171,4.273l-45.166,1.083a4.273,4.273,0,0,1-4.232-3.157l-2.122-7.8a4.273,4.273,0,0,0-4.175-3.157l-60.332.65a4.273,4.273,0,0,0-4.171,4.989l24.272,142.849a4.277,4.277,0,0,0,4.2,3.561l190.6.818a4.277,4.277,0,0,0,4.216-5.078L413.385,434.071A4.273,4.273,0,0,0,409.145,430.6Z" transform="translate(-142.513 -266.973)" fill="#e6e8ee"/><path d="M873.716,169.349l-.327,3.639.237,6.436-.691,10.856s-.1,4.755-2.785,6.984l-6.857,10.529-.041.02-2.58,1.259-3.937.409-2.044-4.952,1.353-5.438.752-1.014.208-.229c.818-.9,3.974-4.167,6.481-5.185a3.548,3.548,0,0,0,1.378-3.148c-.295-1.922,2.257-12.136,2.257-12.136s1.636-6.755,1.28-7.413-.066-15.611,5.577-15.84S873.716,169.349,873.716,169.349Z" transform="translate(-518.931 -103.546)" fill="#f6bac2"/><ellipse cx="6.628" cy="0.912" rx="6.628" ry="0.912" transform="translate(55.29 285.672)" fill="#fda730" opacity="0.1"/><ellipse cx="6.628" cy="0.912" rx="6.628" ry="0.912" transform="translate(29.902 288.243)" fill="#fda730" opacity="0.1"/><ellipse cx="6.628" cy="0.912" rx="6.628" ry="0.912" transform="translate(0 284.76)" fill="#fda730" opacity="0.1"/><ellipse cx="4.71" cy="0.646" rx="4.71" ry="0.646" transform="translate(41.981 295.841)" fill="#fda730" opacity="0.1"/><ellipse cx="4.71" cy="0.646" rx="4.71" ry="0.646" transform="translate(15.632 295.195)" fill="#fda730" opacity="0.1"/><path d="M81.73,664.358s9.294-30.47-1.456-42.676c-8.043-9.13-17.173-8.039-21.262-6.91a7.561,7.561,0,0,0-4.874,4.052c-1.431,3.083-1.174,8.088,8.918,13.931C79.947,642.535,81,655.951,81,655.951Z" transform="translate(-45.343 -375.402)" fill="#0091f2"/><path d="M70.54,626.41S97.936,635,91.8,671.674" transform="translate(-55.411 -382.719)" fill="none" stroke="#565987" stroke-miterlimit="10" stroke-width="1"/><path d="M105.62,633.92s-3.774,2.543-2.572,6.366" transform="translate(-74.487 -387.158)" fill="none" stroke="#565987" stroke-miterlimit="10" stroke-width="1"/><path d="M77.26,637.377s2.306-2.347,5.115-1.051" transform="translate(-59.383 -388.35)" fill="none" stroke="#565987" stroke-miterlimit="10" stroke-width="1"/><path d="M103.75,667.2s4.052-2.044,5.1.519" transform="translate(-75.042 -406.376)" fill="none" stroke="#565987" stroke-miterlimit="10" stroke-width="1"/><path d="M123.785,678.769s-3.042-.241-3.1,1.227" transform="translate(-85.055 -413.66)" fill="none" stroke="#565987" stroke-miterlimit="10" stroke-width="1"/><path d="M99.7,706.36s-10.889-22.145-13.878-21.671c-1.419.233-2.073,1.635-2.372,3.034a8.91,8.91,0,0,0,.593,5.389C85.593,696.67,89.743,703.4,99.7,706.36Z" transform="translate(-62.94 -417.164)" fill="#91c3f4"/><path d="M89.71,695s11.424,16.568,13.632,17.3" transform="translate(-66.743 -423.263)" fill="none" stroke="#565987" stroke-miterlimit="10" stroke-width="1"/><line x2="2.666" transform="translate(21.916 274.325)" fill="none" stroke="#565987" stroke-miterlimit="10" stroke-width="1"/><line x2="4.183" y2="0.18" transform="translate(25.11 280.385)" fill="none" stroke="#565987" stroke-miterlimit="10" stroke-width="1"/><line x1="0.454" y2="2.179" transform="translate(27.203 275.535)" fill="none" stroke="#565987" stroke-miterlimit="10" stroke-width="1"/><line x1="0.082" y2="1.979" transform="translate(32.02 282.163)" fill="none" stroke="#565987" stroke-miterlimit="10" stroke-width="1"/><path d="M122.66,706.36s10.885-22.145,13.874-21.671c1.423.233,2.077,1.635,2.372,3.034a8.91,8.91,0,0,1-.593,5.389C136.767,696.67,132.612,703.4,122.66,706.36Z" transform="translate(-86.22 -417.164)" fill="#91c3f4"/><path d="M136.686,695s-11.449,16.568-13.636,17.3" transform="translate(-86.45 -423.263)" fill="none" stroke="#565987" stroke-miterlimit="10" stroke-width="1"/><line x1="2.666" transform="translate(48.621 274.325)" fill="none" stroke="#565987" stroke-miterlimit="10" stroke-width="1"/><line x1="4.183" y2="0.18" transform="translate(43.911 280.385)" fill="none" stroke="#565987" stroke-miterlimit="10" stroke-width="1"/><line x2="0.454" y2="2.179" transform="translate(45.546 275.535)" fill="none" stroke="#565987" stroke-miterlimit="10" stroke-width="1"/><line x2="0.082" y2="1.979" transform="translate(41.102 282.163)" fill="none" stroke="#565987" stroke-miterlimit="10" stroke-width="1"/><path d="M76.005,746a1.881,1.881,0,0,1-.617-.936.818.818,0,0,1,.433-.953,1.2,1.2,0,0,1,1.145.409,1.463,1.463,0,0,0,1.108.519,1.693,1.693,0,0,1-.523-1.587.646.646,0,0,1,.143-.323c.221-.237.621-.135.887.053a3.357,3.357,0,0,1,1.079,2.76,5.276,5.276,0,0,0,0-1.137,1.165,1.165,0,0,1,.458-.994,1.277,1.277,0,0,1,.65-.155,1.349,1.349,0,0,1,1.059.3,1.051,1.051,0,0,1-.041,1.3,4.175,4.175,0,0,1-1.1.875,2.452,2.452,0,0,0-.781.748.548.548,0,0,0-.057.131h-2.38A6.6,6.6,0,0,1,76.005,746Z" transform="translate(-58.259 -451.632)" fill="#91c3f4"/><path d="M177.455,724.216a1.852,1.852,0,0,1-.617-.932.818.818,0,0,1,.429-.953,1.2,1.2,0,0,1,1.145.409,1.508,1.508,0,0,0,1.116.536,1.693,1.693,0,0,1-.527-1.582.649.649,0,0,1,.147-.323c.221-.237.621-.135.887.049a3.309,3.309,0,0,1,1.079,2.764,5.315,5.315,0,0,0,0-1.141,1.17,1.17,0,0,1,.409-1.006,1.306,1.306,0,0,1,.65-.151,1.366,1.366,0,0,1,1.059.3,1.051,1.051,0,0,1-.045,1.3,4.088,4.088,0,0,1-1.092.875,2.426,2.426,0,0,0-.781.744.677.677,0,0,0-.057.135h-2.327A6.548,6.548,0,0,1,177.455,724.216Z" transform="translate(-118.227 -438.769)" fill="#91c3f4"/><path d="M143.639,746.031a1.917,1.917,0,0,1-.622-.936.818.818,0,0,1,.433-.953,1.2,1.2,0,0,1,1.145.409,1.52,1.52,0,0,0,1.116.54,1.7,1.7,0,0,1-.527-1.586.65.65,0,0,1,.147-.323c.221-.237.622-.135.887.053a3.308,3.308,0,0,1,1.079,2.76,5.283,5.283,0,0,0,0-1.137,1.169,1.169,0,0,1,.429-1.006,1.264,1.264,0,0,1,.65-.155,1.353,1.353,0,0,1,1.059.3,1.047,1.047,0,0,1-.045,1.3,4.151,4.151,0,0,1-1.092.875,2.454,2.454,0,0,0-.781.748.546.546,0,0,0-.057.131h-2.372A6.66,6.66,0,0,1,143.639,746.031Z" transform="translate(-98.236 -451.662)" fill="#91c3f4"/><path d="M45.8,706.25s-.887,1.161.409,2.915,2.367,3.234,1.934,4.326c0,0-1.959-3.271-3.553-3.3S44.05,708.192,45.8,706.25Z" transform="translate(-39.61 -429.914)" fill="#91c3f4"/><path d="M45.809,706.25a1.461,1.461,0,0,0-.18.364c-1.554,1.828-2.384,3.533-.887,3.578,1.39.041,3.063,2.527,3.459,3.157a1.464,1.464,0,0,1-.045.143s-1.959-3.271-3.553-3.3S44.055,708.192,45.809,706.25Z" transform="translate(-39.614 -429.914)" opacity="0.1"/><path d="M44.66,709.491c0,.409.045.74.1.74s.1-.331.1-.74-.057-.217-.114-.217S44.66,709.083,44.66,709.491Z" transform="translate(-40.113 -431.675)" fill="#ffd037"/><path d="M42.953,710.665c.36.2.671.311.7.262s-.241-.245-.6-.442-.217-.053-.245,0S42.593,710.469,42.953,710.665Z" transform="translate(-38.974 -432.358)" fill="#ffd037"/><path d="M56.631,706.25s.891,1.161-.409,2.915-2.367,3.234-1.934,4.326c0,0,1.959-3.271,3.553-3.3S58.385,708.192,56.631,706.25Z" transform="translate(-45.746 -429.914)" fill="#91c3f4"/><path d="M56.7,706.25a1.55,1.55,0,0,1,.184.364c1.554,1.828,2.384,3.533.887,3.578-1.39.041-3.063,2.527-3.463,3.157a.846.846,0,0,0,.049.143s1.959-3.271,3.553-3.3S58.456,708.192,56.7,706.25Z" transform="translate(-45.817 -429.914)" opacity="0.1"/><path d="M63.9,709.491c0,.409-.045.74-.1.74s-.1-.331-.1-.74.057-.217.114-.217S63.9,709.083,63.9,709.491Z" transform="translate(-51.368 -431.675)" fill="#ffd037"/><path d="M64.577,710.665c-.36.2-.675.311-.7.262s.241-.245.6-.442.217-.053.241,0S64.933,710.469,64.577,710.665Z" transform="translate(-51.472 -432.358)" fill="#ffd037"/><path d="M50.153,721.651s-2.482-.078-3.23-.609-3.819-1.169-4.007-.315-3.729,4.252-.928,4.273,6.514-.437,7.262-.891S50.153,721.651,50.153,721.651Z" transform="translate(-37.899 -438.224)" fill="#a8a8a8"/><path d="M41.941,726.635c2.8.025,6.514-.433,7.262-.891.568-.343.793-1.587.871-2.163h.082s-.155,2-.9,2.453-4.457.916-7.262.891c-.818,0-1.088-.294-1.071-.72C41.029,726.471,41.361,726.614,41.941,726.635Z" transform="translate(-37.901 -440.157)" opacity="0.2"/><circle cx="8.844" cy="8.844" r="8.844" transform="translate(5.033 42.967)" fill="#0091f2" opacity="0.1"/><circle cx="8.844" cy="8.844" r="8.844" transform="translate(430.315 113.644)" fill="#0091f2" opacity="0.1"/><circle cx="8.844" cy="8.844" r="8.844" transform="translate(271.331 14.881)" fill="#fda730" opacity="0.1"/><circle cx="14.822" cy="14.822" r="14.822" transform="translate(16.744 85.782)" fill="#0091f2" opacity="0.1"/><path d="M462.727,610.231l-.523-.523a.56.56,0,0,1,0-.818l4.592-4.6a.56.56,0,0,1,.818,0l4.592,4.592a.568.568,0,0,1,0,.818l-.523.523a.568.568,0,0,1-.818,0l-2.715-2.862v6.792a.564.564,0,0,1-.564.568h-.756a.568.568,0,0,1-.568-.568v-6.783l-2.715,2.862a.568.568,0,0,1-.818,0Z" transform="translate(-286.823 -369.541)" fill="#f6f7f9"/><path d="M459.425,592.567a9.319,9.319,0,1,1-9.319,9.319,9.319,9.319,0,0,1,9.319-9.319m0-1.227a10.545,10.545,0,1,0,10.545,10.545A10.545,10.545,0,0,0,459.425,591.34Z" transform="translate(-279.052 -361.989)" fill="#f6f7f9"/></g></svg>