<svg xmlns="http://www.w3.org/2000/svg" width="269.362" height="206.284" viewBox="0 0 269.362 206.284"><path d="M692.3,154.4l-116,49.856,16.709,46.091,11.96,32.951,3,8.293L634.7,301.73l.96.369,27.93,10.582L677,306.947l18.259-7.85,8.588-3.691Z" transform="translate(-434.482 -116.405)" fill="#f2f2f2"/><rect width="47.986" height="21.458" transform="translate(0.246 33.172)" fill="#f2f2f2"/><rect width="7" height="7" transform="translate(167.363 102.615)" fill="#3f3d56"/><rect width="8" height="7" transform="translate(149.363 102.615)" fill="#3f3d56"/><rect width="8" height="8" transform="translate(183.363 86.615)" fill="#3a27ff"/><rect width="9" height="8" transform="translate(174.363 94.615)" fill="#3f3d56"/><rect width="10" height="8" transform="translate(157.363 94.615)" fill="#3f3d56"/><rect width="8" height="8" transform="translate(59.363 109.615)" fill="#3a27ff"/><rect width="9" height="7" transform="translate(133.363 102.615)" fill="#3f3d56"/><rect width="7" height="7" transform="translate(84.363 102.615)" fill="#3f3d56"/><rect width="9" height="9" transform="translate(75.363 93.615)" fill="#3f3d56"/><rect width="8" height="7" transform="translate(117.363 102.615)" fill="#3f3d56"/><rect width="8" height="9" transform="translate(109.363 93.615)" fill="#3f3d56"/><rect width="8" height="7" transform="translate(101.363 102.615)" fill="#3f3d56"/><rect width="8" height="7" transform="translate(67.363 102.615)" fill="#3f3d56"/><rect width="8" height="9" transform="translate(125.363 93.615)" fill="#3a27ff"/><path d="M651.356,299.907,647,295.256l4.651-4.356,4.356,4.651Zm-3.642-4.626,3.667,3.937,3.937-3.667-3.667-3.937Z" transform="translate(-487.784 -219.314)" fill="#3f3d56"/><path d="M406.174,230.074H399.8V223.7h6.374Zm-5.881-.492h5.389v-5.389h-5.389Z" transform="translate(-301.416 -168.651)" fill="#3f3d56"/><path d="M887.174,180.074H880.8V173.7h6.374Zm-5.881-.492h5.389v-5.389h-5.389Z" transform="translate(-664.05 -130.955)" fill="#3f3d56"/><path d="M244.837,319.046l-.369-.369a19.424,19.424,0,0,0,3.864-6.743c1.28-3.864,1.895-9.942-2.387-17.054-4.38-7.284-4.577-13.19-3.987-16.857a14.843,14.843,0,0,1,2.412-6.324l.418.32a14.65,14.65,0,0,0-2.313,6.127c-.591,3.593-.369,9.351,3.913,16.463,4.4,7.284,3.74,13.535,2.436,17.521A19.081,19.081,0,0,1,244.837,319.046Z" transform="translate(-182.233 -204.839)" fill="#3f3d56"/><path d="M514.805,251.046l-.369-.369a19.423,19.423,0,0,0,3.864-6.743c1.28-3.863,1.895-9.942-2.387-17.054-4.38-7.284-4.6-13.19-3.987-16.857a14.841,14.841,0,0,1,2.412-6.324l.418.32a14.647,14.647,0,0,0-2.313,6.127c-.591,3.593-.369,9.351,3.913,16.463,4.4,7.284,3.74,13.535,2.436,17.521A19.083,19.083,0,0,1,514.805,251.046Z" transform="translate(-385.759 -153.573)" fill="#3f3d56"/><path d="M749.805,225.046l-.369-.369a19.426,19.426,0,0,0,3.864-6.743c1.28-3.863,1.895-9.942-2.387-17.054-4.38-7.284-4.6-13.19-3.987-16.857a14.842,14.842,0,0,1,2.412-6.324l.418.32a14.652,14.652,0,0,0-2.313,6.127c-.591,3.593-.369,9.351,3.913,16.463,4.4,7.284,3.74,13.535,2.436,17.521A19.08,19.08,0,0,1,749.805,225.046Z" transform="translate(-562.93 -133.971)" fill="#3f3d56"/><rect width="23.156" height="0.517" transform="translate(12.649 39.939)" fill="#3f3d56"/><rect width="23.156" height="0.517" transform="translate(12.649 43.631)" fill="#3f3d56"/><rect width="23.156" height="0.517" transform="translate(12.649 47.322)" fill="#3f3d56"/><rect width="23.156" height="0.517" transform="translate(142.334 4.749)" fill="#3f3d56"/><rect width="23.156" height="0.517" transform="translate(142.334 8.441)" fill="#3f3d56"/><rect width="23.156" height="0.517" transform="translate(142.334 12.132)" fill="#3f3d56"/><rect width="23.156" height="0.517" transform="translate(196.719 86.449)" fill="#3f3d56"/><rect width="23.156" height="0.517" transform="translate(196.719 90.14)" fill="#3f3d56"/><rect width="23.156" height="0.517" transform="translate(196.719 93.831)" fill="#3f3d56"/><rect width="23.156" height="0.517" transform="translate(51.284 123.361)" fill="#3f3d56"/><rect width="23.156" height="0.517" transform="translate(51.284 127.053)" fill="#3f3d56"/><rect width="23.156" height="0.517" transform="translate(51.284 130.744)" fill="#3f3d56"/><path d="M137.9,51.807c4.011-8.982,10.04-14.888,17.915-17.546,5.857-1.993,12.649-2.166,20.154-.566a54.8,54.8,0,0,1,15.749,6.1c26.06,15.134,42.154,15.257,51.087,12.7,9.794-2.805,13.362-9.351,13.412-9.425l.443.221c-.025.074-3.691,6.792-13.682,9.671-5.758,1.649-12.476,1.723-19.982.2-9.351-1.895-19.933-6.251-31.5-12.944a53.117,53.117,0,0,0-15.6-6.054c-12.3-2.633-28.816-1.7-37.5,17.816Z" transform="translate(-103.965 -24.591)" fill="#2f2e41"/><ellipse cx="9" cy="9.5" rx="9" ry="9.5" transform="translate(53.363 48.615)" fill="#3f3d56"/><ellipse cx="9" cy="9.5" rx="9" ry="9.5" transform="translate(121.363 33.615)" fill="#3f3d56"/><ellipse cx="8.5" cy="9" rx="8.5" ry="9" transform="translate(179.363 25.615)" fill="#3f3d56"/><path d="M54.877,137.053H0V109H54.877ZM.492,136.561H54.384V109.492H.492Z" transform="translate(0 -82.177)" fill="#3f3d56"/><rect width="47.986" height="21.458" transform="translate(69.395 14.716)" fill="#f2f2f2"/><rect width="23.156" height="0.517" transform="translate(81.798 21.483)" fill="#3f3d56"/><rect width="23.156" height="0.517" transform="translate(81.798 25.174)" fill="#3f3d56"/><rect width="23.156" height="0.517" transform="translate(81.06 28.127)" fill="#3f3d56"/><path d="M335.877,62.053H281V34h54.877Zm-54.384-.492h53.892V34.492H281.492Z" transform="translate(-211.851 -25.633)" fill="#3f3d56"/><rect width="47.986" height="21.458" transform="translate(193.175 6.349)" fill="#f2f2f2"/><rect width="23.156" height="0.517" transform="translate(205.578 13.116)" fill="#3f3d56"/><rect width="23.156" height="0.517" transform="translate(205.578 16.807)" fill="#3f3d56"/><rect width="23.156" height="0.517" transform="translate(205.578 20.499)" fill="#3f3d56"/><path d="M838.876,28.053H784V0h54.877Zm-54.384-.492h53.892V.492H784.492Z" transform="translate(-591.071)" fill="#3f3d56"/><path d="M1022.2,663.284l6.644,23.7s-1.378,20.991,5.02,16.881c6.546-4.208,4.11-21.9,4.11-21.9l-3.839-21.262Z" transform="translate(-770.654 -498.113)" fill="#a0616a"/><path d="M1016.947,401.1l5.488,5.488v26.134s3.224,4.848,2.584,6.127-1.28,1.28-.64,2.264,1.28,1.624.64,2.264a2.436,2.436,0,0,0,0,2.9c.64.64,1.944,1.624.96,2.584s-2.264.32-.96,3.864c1.279,3.544,3.544,4.528,2.9,5.808s-.64,4.528-.64,4.528l-13.879,1.944-2.9-36.469Z" transform="translate(-761.833 -302.396)" fill="#d0cde1"/><path d="M1031.818,651.5l-16.118.664.64,6.767,14.2-2.584Z" transform="translate(-765.753 -491.177)" fill="#3f3d56"/><path d="M895.019,264,893.1,283.367l19.687,2.9,1.452-11.123L915.69,264Z" transform="translate(-673.323 -199.034)" fill="#a0616a"/><path d="M895.019,263.6,893.1,282.967l19.687,2.9,1.452-11.148L915.69,263.6Z" transform="translate(-673.323 -198.732)" opacity="0.1"/><path d="M727.2,638.4l10.975,23.55s1.944,10.975,4.848,11.3,5.808-11.3,5.808-11.3l-3.864-6.127L740.439,638.4Z" transform="translate(-548.248 -481.3)" fill="#a0616a"/><path d="M842.338,726.87H780.3c.492-7.776.812-12.575.812-12.575l.812-1.3,3.987-6.275,2.855-4.479.984-1.575.369-.591,3.913-.714L834.34,692a49.253,49.253,0,0,0,2.805,8.711c.271.615.566,1.255.886,1.87a19.158,19.158,0,0,0,3.716,5.242,4.65,4.65,0,0,1,.738,2.436C842.9,713.458,842.781,719.315,842.338,726.87Z" transform="translate(-588.281 -521.711)" fill="#2f2e41"/><circle cx="15.479" cy="15.479" r="15.479" transform="translate(217.045 40.284)" fill="#a0616a"/><path d="M729.152,351.28,726.888,350s-10.016,6.767-13.239,21.951S708.161,391,708.161,391s-3.224.64-.96,2.9,2.264,1.944.32,3.224-3.224-1.28-1.944,1.28c1.28,2.584,2.9,1.944,1.624,3.544-1.28,1.624-3.544,1.624-2.264,2.9s-1.28,4.183.32,5.488c1.624,1.28,2.264,1.624,2.264,3.863a11.367,11.367,0,0,0,.64,3.864h16.783s-3.224-6.127-2.264-7.432c.96-1.28,1.28-2.584.64-3.224s-2.584.64-.64-.96c1.944-1.624,2.584-.64,1.944-2.584s-1.944-.96-.64-1.944c1.28-.96,2.264-.64,1.624-1.624-.64-.96-1.944-.96-.64-1.624,1.28-.64,2.264,0,1.944-1.624s-.64-.96,0-1.624,7.432-22.59,7.432-23.23S729.152,351.28,729.152,351.28Z" transform="translate(-531.179 -263.871)" fill="#d0cde1"/><path d="M729.126,621.4,708.8,622.68l5.168,4.848,14.2.32Z" transform="translate(-534.376 -468.484)" fill="#3f3d56"/><path d="M802.183,719.7,798,727.452s12.575,1.624,17.1,3.224c4.528,1.624,16.143,3.864,16.143,3.864l2.9-11.3Z" transform="translate(-601.626 -542.594)" fill="#3f3d56"/><path d="M964.5,727.264l3.568,10.631,14.2-2.9L980.643,725Z" transform="translate(-727.153 -546.59)" fill="#3f3d56"/><path d="M842.669,286.586s-.96-.64-3.224.64-9.671,1.944-13.239-1.944c-3.544-3.864-6.128-7.112-7.112-6.447-.96.64-1.624,8.072-1.624,8.072l-3.224,2.584L795.2,296.257l1.624,43.557,2.9,10.016s-2.264,7.752.64,12.255c2.9,4.528-1.624,6.127-1.624,6.127s-.96,1.28-.32,4.528c.64,3.224-.64,15.159-.64,15.159s27.438,12.255,56.156,1.624l-3.224-12.255-1.624-27.438s1.624-4.528,1.28-6.447,9.671-29.038,9.671-29.038-1.624-13.559-10.016-16.463-9.671-5.808-9.671-5.808S844.294,287.865,842.669,286.586Z" transform="translate(-599.515 -210.152)" fill="#d0cde1"/><path d="M878.053,163.839a7.146,7.146,0,0,1-.984-5.02,15.564,15.564,0,0,0,.443-4.528,44.075,44.075,0,0,1,2.608-6.546c1.3-2.362.689-3.347,4.774-4.085s2.412-6.054,13.19-.32a3.141,3.141,0,0,0,3.273,1.23c2.239-.443,3.027,2.658,3.027,2.658s1.477-.861,2.042.369,4.528-.738,4.528,7.6-4.553,15.848-4.553,15.848.32-14.051-7.038-15.479-15.282-5.561-17.2-.246A41.186,41.186,0,0,1,878.053,163.839Z" transform="translate(-661.131 -106.083)" fill="#2f2e41"/><ellipse cx="1.452" cy="1.944" rx="1.452" ry="1.944" transform="translate(243.967 57.214)" fill="#a0616a"/></svg>