<svg xmlns="http://www.w3.org/2000/svg" width="269.76" height="229.65" viewBox="0 0 269.76 229.65"><g transform="translate(0)"><path d="M488.049,110.657c0,10.819,2.562,19.725,7.008,27.354a54.684,54.684,0,0,0,4.981,7.152c16.341,19.986,46.722,30.926,74.181,48.645,81.053,52.3,89.832-31.507,86.172-83.151a92.147,92.147,0,0,0-22.484-54.542,85.578,85.578,0,0,0-8.752-8.6A83.827,83.827,0,0,0,574.218,27.5c-36.7,0-68.035,22.134-80.46,53.324a80.553,80.553,0,0,0-5.71,29.83Z" transform="translate(-470.812 -27.503)" fill="#fda730"/><path d="M563.344,88.423l82.047,9.872a85.585,85.585,0,0,0-8.752-8.6Z" transform="translate(-493.809 -69.682)" fill="#fff"/><path d="M783.054,383.8a54.647,54.647,0,0,0,4.98,7.152l70.28-8.454Z" transform="translate(-758.81 -286.449)" fill="#fff"/><path d="M654.054,193.952,773.163,178.5l-116.242,6.872A80.16,80.16,0,0,0,654.054,193.952Z" transform="translate(-633.975 -137.806)" fill="#fff"/><path d="M460.518,80.117c0,.212.006.421.025.628A8.613,8.613,0,1,0,476.748,76.1a7.906,7.906,0,0,0-.634-1.018,8.61,8.61,0,0,0-15.566,4.337C460.527,79.647,460.518,79.88,460.518,80.117Z" transform="translate(-304.835 -57.968)" fill="#fda730"/><path d="M474.519,97.428c0,.212.006.421.025.628l12.9-1.55-12.889.221C474.528,96.957,474.519,97.191,474.519,97.428Z" transform="translate(-318.463 -75.278)" fill="#fff"/><path d="M464.778,113.615l11.93,1.437a8.639,8.639,0,0,0,.911-1.215Z" transform="translate(-306.071 -87.125)" fill="#fff"/><path d="M463.759,82.615l9.77,1.175a7.907,7.907,0,0,0-.634-1.018Z" transform="translate(-301.873 -65.661)" fill="#fff"/><path d="M848.52,575.158c.1.188.2.369.316.543A8.613,8.613,0,1,0,860.972,564a7.916,7.916,0,0,0-1.037-.6,8.61,8.61,0,0,0-11.716,11.128C848.308,574.738,848.409,574.948,848.52,575.158Z" transform="translate(-793.95 -418.466)" fill="#fda730"/><path d="M864.86,588.164c.1.188.2.369.316.543l10.664-7.415-11.282,6.238C864.648,587.744,864.749,587.955,864.86,588.164Z" transform="translate(-810.212 -431.367)" fill="#fff"/><path d="M847.6,598.3l11.211-4.323a8.62,8.62,0,0,0,.235-1.5Z" transform="translate(-788.907 -439.393)" fill="#fff"/><path d="M859.775,569.539,868.956,566a7.926,7.926,0,0,0-1.037-.6Z" transform="translate(-802.289 -419.52)" fill="#fff"/><path d="M1052.97,115.1c-.148.152-.29.306-.42.466a8.612,8.612,0,1,0,14.847,7.987,7.922,7.922,0,0,0,.257-1.171,8.61,8.61,0,0,0-14.172-7.763C1053.305,114.774,1053.135,114.935,1052.97,115.1Z" transform="translate(-1050.523 -86.357)" fill="#fda730"/><path d="M1066.822,119.873c-.148.152-.29.306-.42.466l10.315,7.894-9.382-8.841C1067.157,119.543,1066.988,119.7,1066.822,119.873Z" transform="translate(-1064.376 -91.125)" fill="#fff"/><path d="M1071.878,138.039l7.537,9.358a8.625,8.625,0,0,0,1.5-.234Z" transform="translate(-1070.26 -104.035)" fill="#fff"/><path d="M1050.831,123.526l6.174,7.663a7.922,7.922,0,0,0,.257-1.171Z" transform="translate(-1040.133 -93.987)" fill="#fff"/><path d="M584.487,636.956s-18.9.788-18.9,5.513,21.265,0,21.265,0Z" transform="translate(-441.376 -471.979)" fill="#a0616a"/><path d="M227.7,647l35.442-2.363,1.575-18.9,7.876,16.54,34.654-4.726c-.788-29.928-13.389-59.069-14.177-63.007s-2.67-20.21-2.67-20.21c-3.442-7.3-21.478-7.986-35.615-7.324-5.86.268-11.058.772-14.263,1.134-2.119.236-3.371.41-3.371.41-5.647,5.82-9.286,13.751-11.522,22.612C217.565,603.086,227.7,647,227.7,647Z" transform="translate(-77.18 -417.352)" fill="#2f2e41"/><ellipse cx="19.69" cy="19.69" rx="19.69" ry="19.69" transform="translate(179.465 37.841)" fill="#a0616a"/><path d="M279.383,229.879s5.513,24.415,14.177,31.5-33.866,0-33.866,0,9.451-15.752,2.363-22.84S279.383,229.879,279.383,229.879Z" transform="translate(-68.353 -175.994)" fill="#a0616a"/><path d="M222.17,382.1l13.066,1.449,36.552,4.064s.173-.465.48-1.307c2.654-7.238,15.437-42.459,16.847-53.036,1.575-11.814-14.964-25.99-14.964-25.99s-15.752-3.15-20.477-3.15-23.628,7.088-23.628,7.088L223,374.623l-.606,5.489Z" transform="translate(-59.047 -233.637)" fill="#d0cde1"/><path d="M350.316,477.606,376.8,462.082s.465-1.512,1.252-4.064c.394-1.276.874-2.82,1.418-4.568,3.056-9.813,8.183-26.006,12.294-37.836,6.3-18.115-24.415,32.291-24.415,32.291l-1.536,1.189-.606,5.489c-2.119.236-3.371.41-3.371.41C356.192,460.814,352.553,468.745,350.316,477.606Z" transform="translate(-189.583 -311.953)" opacity="0.15"/><path d="M425.875,327.044s7.876,10.239,1.575,28.353-14.964,46.468-14.964,46.468l-45.68,26.778-6.3-7.876,42.53-33.079s1.575-59.857,9.451-62.22A16.139,16.139,0,0,1,425.875,327.044Z" transform="translate(-228.077 -251.036)" fill="#d0cde1"/><path d="M263.437,543.9s-11.026,22.84-15.752,20.477,11.814-25.99,11.814-25.99Z" transform="translate(-34.156 -401.589)" fill="#a0616a"/><path d="M103.724,352.77l41.742,34.654s15.752,11.026-13.389,18.9-31.5,12.6-31.5,12.6-3.15-10.239-7.088-8.663l33.866-16.539L99.786,377.186Z" transform="translate(120.043 -268.35)" fill="#d0cde1"/><path d="M229.258,161.46a111.2,111.2,0,0,1-11.149-5.913c.289-8.582-.768-16.373-3.861-20.5-1.736-3.943-5.383-7.89-8.239-11-7.013-7.634-22.521-11.895-25.272-8.081-20.8.411-22.993,16.717-22.993,16.717.108,6.821,7.2,7.036,13.407,6.788-.556,4.656.926,9.495,5.217,11.64,8.206,4.1,10.668,9.437,6.565,13.13s-11.489,13.54-1.641,16,11.078,7.386,8.206,9.437,6.565-3.693,6.565-3.693,1.641,9.847,10.258,7.386a5.183,5.183,0,0,0,2.3-1.631c2.327,2.557,4.4,4.069,5.968,4.077,8.961.048,7.887-9.878,7.887-9.878s10.637,2.987,7.317,1.786-3.461-6.274,5.358-11.3S234.2,163.91,229.258,161.46Z" transform="translate(11.286 -87.769)" fill="#2f2e41"/><path d="M614.5,261.021l.143-.019-.349,1.325a34.812,34.812,0,0,1-1.43,5.438L602.64,306.62a6.586,6.586,0,0,1-5.362,4.833l-20.844,3.225a6.585,6.585,0,0,1-6.813-3.4l-19.809-37a34.758,34.758,0,0,1-1.695-3.165l-.673-1.256.1-.014a35.022,35.022,0,1,1,66.948-8.822Z" transform="translate(-459.838 -172.45)" fill="#fff"/><path d="M545.219,311.785a7.177,7.177,0,0,0,1.1-.084l21.788-3.371a7.19,7.19,0,0,0,5.855-5.277l10.684-40.614a36.639,36.639,0,0,0,1.5-5.708l.27-1.777a36.923,36.923,0,0,0-42.265-41.18l.094.608a36.321,36.321,0,0,1,41.508,40.887l-.208,1.329a36.367,36.367,0,0,1-1.488,5.66L573.365,302.9a6.574,6.574,0,0,1-5.354,4.826l-21.788,3.371a6.585,6.585,0,0,1-6.8-3.395l-.543.29A7.205,7.205,0,0,0,545.219,311.785Z" transform="translate(-432.218 -166.894)" fill="#d0cde1"/><rect width="38.55" height="0.796" transform="translate(122.262 130.05) rotate(-110.115)" fill="#d0cde1"/><rect width="0.796" height="38.55" transform="translate(128.361 129.096) rotate(-177.484)" fill="#d0cde1"/><path d="M575.744,579.931l27.919-4.319a.8.8,0,0,0-.243-1.573L575.5,578.358a.8.8,0,1,0,.243,1.573Z" transform="translate(-460.672 -425.951)" fill="#3f3d56"/><path d="M578.071,560.658l27.919-4.319a.8.8,0,1,0-.243-1.573l-27.919,4.319a.8.8,0,0,0,.243,1.573Z" transform="translate(-463.609 -411.9)" fill="#3f3d56"/><path d="M580.4,541.385l27.919-4.319a.8.8,0,1,0-.243-1.573l-27.919,4.319a.8.8,0,0,0,.244,1.573Z" transform="translate(-466.546 -397.849)" fill="#3f3d56"/><path d="M601.354,585.421c-5.538.857-10.5-1.535-11.094-5.343l20.055-3.1C610.9,580.784,606.892,584.565,601.354,585.421Z" transform="translate(-471.482 -428.317)" fill="#3f3d56"/><path d="M630.935,342.472a4.9,4.9,0,0,0,2.717-1.757c.177-.207.35-.422.523-.637a6.213,6.213,0,0,1,2.051-1.909c1.826-.852,3.978.338,5.841,1.615l.45-.656c-2.049-1.4-4.437-2.7-6.628-1.68a6.893,6.893,0,0,0-2.335,2.132c-.168.209-.335.417-.507.618-.562.656-1.682,1.719-2.883,1.474a3.876,3.876,0,0,1-1.383-.732,7.43,7.43,0,0,0-.979-.618,3.9,3.9,0,0,0-4.278.6,7.719,7.719,0,0,0-.58.614,1.981,1.981,0,0,1-3.2.377,4.115,4.115,0,0,0-2.409-.721l-.086.012c-1.568.243-2.29,1.976-2.7,3.27l.759.24c.556-1.759,1.232-2.633,2.119-2.731a3.5,3.5,0,0,1,1.938.631,2.715,2.715,0,0,0,4.178-.552,7.025,7.025,0,0,1,.52-.552,3.127,3.127,0,0,1,3.388-.479,6.711,6.711,0,0,1,.873.554,4.522,4.522,0,0,0,1.683.862A2.617,2.617,0,0,0,630.935,342.472Z" transform="translate(-509.388 -253.281)" fill="#d0cde1"/></g></svg>