<svg xmlns="http://www.w3.org/2000/svg" xmlns:xlink="http://www.w3.org/1999/xlink" width="907.79" height="441.22" viewBox="0 0 907.79 441.22"><defs><linearGradient id="a" x1="0.5" x2="0.5" y2="1" gradientUnits="objectBoundingBox"><stop offset="0" stop-color="#fff"/><stop offset="0.483" stop-color="#429aed"/><stop offset="1" stop-color="#3c35f7"/><stop offset="1" stop-color="#ff0080"/></linearGradient><linearGradient id="b" x1="0.5" x2="0.5" y2="1" gradientUnits="objectBoundingBox"><stop offset="0" stop-color="#429aee"/><stop offset="0.083" stop-color="#429aee" stop-opacity="0.918"/><stop offset="0.537" stop-color="#429aee" stop-opacity="0.482"/><stop offset="0.852" stop-color="#429aee" stop-opacity="0.208"/><stop offset="1" stop-color="#429aee" stop-opacity="0.102"/></linearGradient><linearGradient id="c" x1="0.5" y1="1" x2="0.5" gradientUnits="objectBoundingBox"><stop offset="0" stop-color="#f2b351"/><stop offset="0.193" stop-color="#f2b351" stop-opacity="0.8"/><stop offset="0.593" stop-color="#f2b351" stop-opacity="0.349"/><stop offset="0.87" stop-color="#f2b351" stop-opacity="0.102"/><stop offset="1" stop-color="#f2b351" stop-opacity="0.012"/></linearGradient></defs><g transform="translate(39.776 -1301.068)"><g transform="translate(-85.776 1301.068)"><path d="M-53.412,124S126.462,188.86,617.094,10.67c0,0,147.4-54.431,237.246,92.819v265.52L756.8,286.339H631.456L255.362,309.265S135.621,280.593,84.842,267.22c-50.691-13.35-32.6-11.457-76.95-25.1C-25,232.006-50.866,219.584-53.449,213.985Z" transform="translate(99.449 -0.836)" fill="#0091f2" opacity="0.1"/><path d="M0,622s173.263,79.962,377.8,79.962c0,0,69.7,10.752,280.632-33.987S907.79,759.246,907.79,759.246v89.541S845.753,693,676.983,709.131,365.65,778.341,0,622Z" transform="translate(46 -407.567)" fill="url(#a)"/></g><g transform="matrix(0.998, 0.07, -0.07, 0.998, 685.844, 1306.028)"><rect width="0.633" height="24.987" transform="translate(6.519 37.594) rotate(-179.892)" fill="#3f3d56"/><path d="M0,15.78c-.057,8.737,6.077,15.86,6.077,15.86S12.3,24.6,12.36,15.86,6.283,0,6.283,0,.057,7.043,0,15.78Z" transform="translate(0 0)" fill="#0091f2"/></g><g transform="translate(31.418 1397)"><rect width="0.557" height="35.329" transform="translate(11.853 4.692) rotate(-4.467)" fill="#3f3d56"/><path d="M274.046,39.387c0,10.627-8.536,20.347-8.536,20.347a59.4,59.4,0,0,1-3.31-19.267c0-10.627,1.463-19.267,3.31-19.267S274.046,28.761,274.046,39.387Z" transform="translate(-247.895 -12.995)" fill="#91c3f4"/><path d="M223.114,49.749c4.076,9.825,15.679,15.539,15.679,15.539a58.831,58.831,0,0,0-4.355-19.058c-4.076-9.825-8.745-17.212-10.452-16.515S219.037,39.923,223.114,49.749Z" transform="translate(-221.143 -18.513)" fill="#0091f2"/><ellipse cx="3.589" cy="3.589" rx="3.589" ry="3.589" transform="translate(7.457 6.64) rotate(-67.697)" fill="#fda730"/><path d="M1.638,0A1.638,1.638,0,1,1,0,1.638,1.638,1.638,0,0,1,1.638,0Z" transform="matrix(0.406, -0.914, 0.914, 0.406, 11.337, 3.29)" fill="#91c3f4"/></g><g transform="translate(187.854 -789.856) rotate(8)"><rect width="0.696" height="44.087" transform="translate(944.826 2138.809) rotate(-175.533)" fill="#3f3d56"/><path d="M262.2,43.9c0,13.261,10.652,25.391,10.652,25.391a74.12,74.12,0,0,0,4.13-24.043c0-13.261-1.826-24.043-4.13-24.043S262.2,30.635,262.2,43.9Z" transform="translate(668.218 2078.039)" fill="url(#b)"/><path d="M240.707,54.726c-5.087,12.261-19.565,19.391-19.565,19.391a73.413,73.413,0,0,1,5.435-23.782c5.087-12.261,10.913-21.478,13.043-20.608S245.794,42.465,240.707,54.726Z" transform="translate(719.884 2073.251)" fill="#fda730"/><path d="M4.478,8.956A4.478,4.478,0,1,0,0,4.478,4.478,4.478,0,0,0,4.478,8.956Z" transform="translate(945.459 2100.685) rotate(-112.303)" fill="url(#c)"/><path d="M2.043,4.087A2.043,2.043,0,1,0,0,2.043,2.043,2.043,0,0,0,2.043,4.087Z" transform="matrix(-0.406, -0.914, 0.914, -0.406, 945.169, 2094.765)" fill="#91c3f4"/></g></g></svg>